<svg xmlns="http://www.w3.org/2000/svg" xmlns:xlink="http://www.w3.org/1999/xlink" version="1.1" id="Layer_1" x="0px" y="0px" viewBox="0 0 48.1 69.5" enable-background="new 0 0 48.1 69.5" xml:space="preserve"><path d="M14.1 1c7.2 0.4 14.5 1.1 21.7-0.5C39.3-0.3 43 0 46.6 0.6C50.2 8 46.8 14.2 43 20.1 c-5.4 8.4-5.6 8.4 0 16.2c3.9 5.4 4.5 11 2 16.9c-2.7 6.2-7.9 9-14.4 9c-5 0-8.9 1.4-12.6 4.7c-3.9 3.6-8.7 2.8-13.2 1.1 C0.3 66.4 0 62.4 0 58.5c0-6.5 0.1-13 0.4-19.4c0.2-4.4 2.1-8.1 6.1-10.2c6.6-3.4 9.6-7.9 7.3-15.7C12.7 9.4 12.3 5 14.1 1z" class="svg"/></svg>