<svg xmlns="http://www.w3.org/2000/svg" xmlns:xlink="http://www.w3.org/1999/xlink" version="1.1" id="Layer_1" x="0px" y="0px" viewBox="0 0 704.5 916.1" enable-background="new 0 0 704.5 916.1" xml:space="preserve"><g><path d="M96.4 756.9C96.4 756.8 96.4 756.8 96.4 756.9C96.5 756.8 96.5 756.8 96.4 756.9L96.4 756.9z" class="style0"/><path d="M697.5 322.9c-0.4-2.7 0.5-5.7-1.7-8.1c-2.3-2.5-5.3-0.2-8.9-0.6c2.9-2.6 1-4.1-0.2-6 c-5-8-12.3-12.7-21-15.8c-7.5-2.7-14.7-1.7-21.3 2.5c-2.9 1.8-5.9 3-9.2 3.1c1.2 4.5 2.7 8.8 3.4 13.4c1.1 6.9 0.8 13.3-1.7 20 c-2.6 7-3.8 14.4-4.6 21.8c-0.6 5.6-4.8 8.7-9.2 11c-4.7 2.4-8 6.7-8.3 10.9c-0.4 8.4-6.1 10.5-12.1 12.4 c-5.5 1.7-10.4 3.7-13.8 8.9c-3.4 5.1-9 7.4-14.5 9.1c-9.4 2.9-17.6 7.8-24.7 14.5c-2.2 2.1-5 3.6-7.8 4.4 c-8.2 2.2-13.6 7.8-19.2 13.6c-10.8 11.3-16.2 11.3-27.3 0.2c-5.1-5.1-9.9-10.4-14.7-15.6c-11.2-12.3-24.8-16.6-41-12.5 c-5.9 1.5-12 1.1-17.9 0.5c-6.2-0.6-10.9-4.6-15.4-8.5c-5.2-4.4-10.2-9-15.5-13.3c-5.3-4.3-10.7-4.6-15.8 0.2 c-8.9 8.4-18.8 9.6-30 5.9c-6.6-2.2-13.7-2.2-20.3-4.8c-10.4-4.1-15.2-10.8-15.4-21.9c-0.1-5.4-0.8-10.6-3.1-15.5 c-3.7 0.7-7.5 1.4-11.2 2c-1.6 0.2-3.7 0-4.3-1.7c-0.9-2.2 1.8-1.8 2.7-2.7c1.5-1.4 3.6-1.8 5.5-2.3c5.2-1.2 9.1-3.9 11.4-8.8 c1.6-3.4 4-5.2 8-3.6c1.5 0.6 3.6 0.8 4.5-0.9c1.8-3.5 5.3-4.9 8.1-7.2c1.5-1.3 3.7-2.3 3.5-4.6c-0.4-4.3 2.3-7.1 4.5-10.2 c3-4.2 6.9-7.7 10.5-11.4c1.6-1.7 3-3.1 0.7-5.4c-2.1-2.2-3.9-2.1-6-0.4c-1.9 1.6-3.8 3.3-5.9 4.6c-4.1 2.7-8.1 3.8-13 0.8 c-3.7-2.3-8.4-2.7-12.1 0.6c-7.8 6.9-15.4 14.2-23.2 21.2c-1.5 1.4-3.1 4.6-4.9 3.2c-2.2-1.7 0.2-4.6 1-6.9c0.3-0.9 1.2-1.6 2-2.2 c7.6-5.4 13.1-12.8 18.3-20.2c3.2-4.5 6.6-6.2 11.7-4.1c4.1 1.7 7.7 1.1 10.8-2.3c1.9-2.1 4.3-3.7 6.2-5.7c2-2.1 4.4-3.7 7.1-4.4 c2.1-0.5 4.5-1 6.2 0.6c1.9 1.7-0.7 3.2-1 4.9c-0.2 1-0.6 1.9-0.8 2.9c-0.8 2.9 0 4.3 3.3 4.4c5.2 0.3 10.4-2.8 12.4-9.5 c2.3-7.5 7-13.1 11.6-18.8c5.1-6.3 9.8-12.9 13.6-20.2c0.7-1.3 1.6-3 0.1-4.1c-1.5-1.1-3.5-0.8-5.2 0.1c-1.4 0.7-2.2 2.1-2.6 3.5 c-3 9.2-10.6 11.3-19.5 12.7c0.5-2.2 5-3.7 1.5-5.8c-4.8-2.8-6.5-8.3-11-11.3c-3-2-3.6-4.9-0.7-8c3.8-4.1 3.1-7-1.8-9.8 c-1.4-0.8-2.8-1.7-4.3-2.6c-1.1-0.6-1.8-1.5-1.5-2.9c0.2-1 0.9-1.6 1.8-1.2c1.3 0.5 3.1 0.1 3.9 1.7c0.4 0.9-1.5 2.9 1.1 2.8 c1.8-0.1 3-1.1 3.3-3.1c0.5-3.5 2.9-5.3 5.7-7.1c8.7-5.5 18.1-10.1 22.7-20.2c1.2-2.7 3.9-4.5 6.3-6.3 c12.8-9.5 26.1-18.4 37.8-29.3c5.6-5.3 10.6-10.6 14-17.8c4.8-10.1 11.6-18.8 23.1-21.7c9.9-2.5 17.9-7.3 24.7-15.1 c10.1-11.5 12.5-25.7 15.5-39.8c0.5-2.4-0.4-3.9-3.4-2.8c-3 1.1-6.2 1.4-7.7-2.2c-1.7-3.9-2.8-9.2 0.1-11.8c9-8.1 7-20.5 12.9-29.6 c0.2-0.4 0.1-1 0.1-1.5c0.8-5.8-0.6-7.2-6.5-6.1c-4 0.7-8.7 2.1-11.7 0c-5.9-4-11.5-2.6-17.6-1.7C464 4.3 458.6 6.5 454.7 1 c-1-1.4-3.2-1.3-4.5 0.1c-1.5 1.7 0.7 2.6 1.4 3.6c2.6 3.7 3 7.9 1.5 11.8c-1.4 3.8-5.5 3.2-8.7 3.3c-6.8 0.1-13.7 1-19.8-3.3 c-0.7-0.5-2-0.8-2.8-0.5c-4.6 1.3-9.3 0.9-13.9 0.7c-7.7-0.3-12.6 3.4-16.2 9.6c-0.5 0.8-0.6 2.6-1.6 2.3 c-5.3-1.7-10.3 2.6-15.6 0.8c-2.1-0.7-4.3-0.3-6.4-0.3c-5.4 0-10.9-0.1-16.3-0.4c-2.3-0.1-2.3-2-2.4-3.7c-0.1-1.1 0.4-2.6-1.1-3 c-1.6-0.4-2.9 0.5-3.8 1.8c-0.6 0.8-1 1.7-1.4 2.6c-1.7 3.2-3.3 5.6-7.7 3c-2.7-1.6-5.9-0.9-7.1 2.8c-1.1 3.6-3.5 5-6.1 2.5 c-3.7-3.5-4.9-1.9-6 1.8c-1.5 4.8-4.9 5.6-8.1 2c-1.2-1.3-2.7-2-4.4-1.9c-5.6 0.4-10.8 1.8-13.9 7.2c-1.4 2.4-2.8 4.9-4.3 7.3 c-2.6 4.2-5.3 8.4-7.9 12.6c-0.6-0.3-1.1-0.7-1.7-1c4.9-7 5.3-16.1 12-22.1c1.2-1.1 3.9-2.7 1.6-4.2c-2.5-1.6-5.3-4.1-8.6-3.3 c-2.4 0.6-3.7-0.3-4.6-1.8c-2.5-4.8-7.1-5-11.5-5.3c-6.5-0.6-10.6 4.5-8.4 10.7c1.7 4.7-0.3 6.6-4.5 7.1c-1.9 0.2-3.9 0.6-4.4 2.7 c-1.4 7.3-7.4 11.5-11.4 17c-0.7 1-1.7 2.1-3.7 1.9c-0.5-3.3 1.2-6 2.8-8.6c3.9-6.1 7.8-12.2 11.6-18.4c0.7-1.1 2.3-2.4 0.2-3.7 c-2.7-1.6-5.3-4.1-8.2-4.5c-4.1-0.6-4.7-2.7-4.7-6.1c0-4.6-2.7-7.4-6.7-9.8c0.2 3.3-0.9 6.1 1.3 8.6c0.9 1 0.8 2.3-0.7 2.7 c-3.8 1.2-2 3.4-1.1 5.5c3.3 7 2.2 10-4.9 13.2c-0.1-0.1-0.3-0.3-0.3-0.4c0.1-0.6 0.1-1.4 0.4-1.9c2.4-4.6 3.4-8.6 1.5-14.3 c-2.2-6.7-9.6-13.5-17.1-12.2c-4 0.7-7.9 1.1-11.2-2.3c-2.2-2.2-3.7-1.3-4.9 1.2c-0.8 1.7-1.1 3.5-1 5.3c0.2 8.9-2 16.4-11.3 20.2 c-5 2-3.9 6.7-3.9 10.8c0 3.6 1.1 6.5 4.7 8c4.8 2 9.2 4.7 13.5 7.6c1.3 0.9 3.6 1.8 2.5 3.6c-1.4 2.2-2.9-0.1-4.1-0.9 c-3.8-2.6-7.5-4.9-12.4-4.1c-1.8 0.3-3.8 0.6-4.7 2.4c-0.9 1.9 0.4 3.6 1.6 4.9c3.1 3 6.4 5.8 9.5 8.8c0.9 0.8 2.7 1.7 1.8 3.1 c-1 1.6-2.7 0.5-4-0.1c-4-1.8-7.7-4-10.8-7.1c-0.7-0.7-1.6-1.3-2.7-0.8c-0.7 0.3-0.8 1.1-0.4 1.7c2.1 2.9 0.3 4.5-1.5 6.8 c-2.1 2.7-3 6.3-2.3 9.9c2.3 11.3 10.5 18.5 18 26.2c1.2 1.2 3 1.1 4.7 0.5c2.8-1 5.1 0.7 7.5 1.8c1.1 0.5 1.1 1.5 0.8 2.6 c-0.2 0.8-0.8 1-1.5 0.8c-6.5-1.2-13.8 0.8-19.4-4.6c-1.8-1.7-3.6-0.8-5.2 0.7c-3.6 3.4-7.6 3.7-11.8 1.2c-1.7-1-3.6-1.8-5.3-2.9 c-1.2-0.7-2.3-1.6-3.5-0.1c-1.1 1.4-1.8 3-0.1 4.4c1.2 1.1 2.7 2.2 0.4 3.2c-1.9 0.9-4.1 3.8-6 1.1c-2-2.8-4.1-4.1-7.4-3.8 c-1.1 0.1-1.8-0.7-2-1.8c-0.2-1.2-0.6-2.3-2.2-2.1c-1.8 0.3-1.6 1.7-1.9 3c-0.8 4.2 1.1 7.2 3.6 10.3c5.6 6.9 9.3 15.3 17.3 20.7 c-4.8 3.2-5.2 7.3-3.4 12.5c1.7 4.8-3.1 12-7 11c-4.8-1.2-9.6-2.8-12.2-7.8c-1.1-2-2.3-5.4-5.4-2.6c-2.3 2.1-7 3.8-2.9 8.5 c4.6 5.3 6 13.4 14.3 15.4c1.2 0.3 1.9 2.2 2.9 3.3c6.1 7.2 10.1 16.2 17.8 22c6.8 5.1 12.1 11.8 18.5 17.3c4 3.5 4.5 7.8 4.9 12.5 c-1.4-3.5-2.7-7.1-6-9.4c-6.7-4.5-12.3-10.2-17.8-16c-1.5-1.6-2.8-2.3-4.2 0.2c-1.9 3.5-3.8 2.9-6.6 0.4c-3.4-2.9-7.6-4.9-12.2-2 c-1.6 1-3.6 3.2-1.1 4c7.3 2.3 12.5 6.8 16.9 12.7c0.5 0.6 1.9 0.6 2.8 0.9c3.7 1.4 6 4 7.1 7.9c-9.5-5.1-19.4-9.3-27.4-16.6 c-3.1-2.9-4.9-2.9-6.6 1c-0.5 1.1-1 2.1-1.5 3.2c-3.8 9.3-3.7 9.2-12.5 4.7c-3-1.5-4.8-2.9-3.7-6.9c1-3.6-5.3-9.6-8.8-9.1 c-6.5 1-6.5 6.6-8 11.2c-1.3 4 1.2 5.3 3.8 7c4.3 2.8 8.4 14.1 6.7 18.9c-0.4 1-0.1 3.1-2.4 2c-0.8-0.4-1.6-1.8-2.5-0.6 c-0.9 1.2-0.3 2.5 0.5 3.7c0.8 1.3 2 3.1 0.4 3.9c-1.7 0.9-3-0.7-3.8-2.3c-0.5-1-1-2.1-1.4-3.2c-1.5-5.4-0.3-11.6-4.7-16.3 c-0.7-0.7-0.4-2.6 0-3.8c1.2-4.1-1.1-4.9-4.2-4.5c-3.6 0.5-7.1 1.5-10.7 2.2c-7.3 1.5-8.7 6.2-6.3 12.3c2 5.1 1.5 9.6 0.3 14.5 c-1.4 5.6 0.6 9.3 5.9 10.9c2.4 0.7 5 1.3 7.4 1c5.4-0.6 5.5 3.8 6.9 6.9c0.6 1.3 0.9 3.2-0.9 3.9c-3.5 1.3-5-1.7-7.1-3.5 c-0.2-0.2-0.5-0.5-0.7-0.7c-2.9-2.8-5.1-1.9-6.5 1.5c-2 5.1-3.8 10.3-5.8 15.4c-0.8 2.2-0.5 2.9 1.9 3.9c5.4 2.1 9.3 5.7 9.7 12 c0.3 3.8 1.1 7.4 5.9 7.8c0.9 0.1 1.7 0.6 1.6 1.5c-0.2 5.7 4 5.3 7.6 5.4c4 0.1 7.9 0.1 12-0.5c2.4-0.3 6.2 0.2 6.3 3.3 c0.1 3.6-3.5 1.9-5.5 2.1c-4.3 0.4-8.7-1-12.8 0.9c-5.5 2.5-5.5 2.6-8.1-3.3c-0.5-1.3-1.2-4.1-2.4-3.1c-4.4 3.7-5-1-6.6-2.7 c-2.2-2.2-4.8-3.5-7.5-4.9c-2.4-1.3-3.6-0.7-5.1 1.7c-2.2 3.6-5 6.6-3 11.2c0.2 0.6-0.2 1.8-0.7 2.3c-5.2 4.6-3.2 10.6-2.7 16 c0.4 4.3 1 9.6 7.4 10.3c1.6 0.2 1.1 1.8 0.5 2.8c-1.2 2-2.7 3.8-3.8 5.9c-1.8 3.2-3.6 6.5-0.5 10c1.3 0 2.6 0 3.9-0.1 c3.9-0.3 6.2 1.2 6.1 5.5c0 1.2 0.7 2.5 1 3.7c1.4-0.3 2.4-1.1 3-2.4c2.5-5.2 6.9-7.7 12.4-8.9c2.7-0.6 5.1-1.1 7.7 0 c11.3 4.5 20.3 0.8 27.7-8.2c0.4-0.5 0.9-0.9 1.5-1.3c0.2-0.2 0.6-0.1 1.3-0.1c0 4-1.2 7.5-4.5 9.8c-4.1 2.7-8.1 5.1-13.2 6.3 c-9 2.2-17.2 6.7-21.8 15.6c4.8 0.3 8.1-3.5 12.2-5c0.3-0.1 0.5-0.5 0.8-0.6c4-1.5 8.7 2 12.6-2c0.4-0.4 3.5 3 3.6 5.7 c2.8 0.3 5.1-1.9 8.6-2c-2.6 5.4-7.7 6-11.9 7.7c-1.3 1.2-0.8 2.7-0.7 4.2c3.9-0.1 6.4 1.5 7.9 5.4c1.3 3.6 5.2 4.9 7.6 7.7 c1 1.2 3.1 2.2 1.3 4c-1.7 1.7-3-0.1-4.2-1.1c-3-2.6-5.7-5.6-7.5-9.2c-0.9-1.8-2-3.4-4.2-3.9c-0.7 3.4-2.3 5.9-5.7 7.5 c-3.9 1.8-7.5 4.1-11.3 6c-2.9 1.5-4.6 3.7-3.6 6.8c1.7 5.6 0.9 10.1-4.3 13.4c2.8 4.1 7 2 10.6 2.3c2.8 0.3 4.6 0.5 6.1 3.6 c2.8 5.9 7.3 7.4 13.7 6.6c5.3-0.7 10.8 0.6 16.3-1.6c-0.3 3.3-2.1 3.3-3.7 3.5c-3.9 0.5-9.4-0.5-11.5 1.7 c-5.4 5.5-8.2 2.4-11.8-1.3c-1.2-1.3-3-2.1-4.6-3c-4.5-2.5-8.9-5-14.4-1.9c-9.2 5.2-15.6 12.7-19.9 22.1c-1.2 2.6 0.8 2.5 2.2 2.3 c7.9-0.8 13.2 3.1 17.3 9.4c1.8 2.7 4.5 3.7 7.7 3.8c5.3 0.2 10.4-0.5 15.6-1.6c-2.9 3.4-7.3 2.5-10.8 3.9 c-6.9 2.8-13.5 0.1-17.3-4.3c-4.9-5.6-10.2-5.3-16.1-5.3c-3.2 0-6.8 4.1-6.5 7.5c0.3 3.6 2.3 6.5 6.2 6.6 c5.9 0.1 11.6 0.2 17.1 2.8c1.3 0.6 3.3 0.1 4.9 0c8-0.5 16 1.1 24.1 0.6c-1.5 2-3.6 2.4-5.7 2.6c-11.7 1.2-23.5 2.2-35.2-0.9 c-9-2.4-9-2.2-13 6c-1.2 2.4-2.4 4.5 1.5 5.6c0.8 0.2 2 1 1.5 2.2c-0.6 1.3-1.9 1.1-3.1 0.7c-0.6-0.2-1.2-0.6-1.8-0.8 c-1.2-0.5-2.3-2.7-3.6-0.3c-1.1 1.9-4 3.2-2.4 6c1 1.8 2.9 3 5 2.4c3.5-1 6.9-2.3 10-4.3c2.1-1.4 4.3-1.9 6.6-1.1 c2.7 0.9 5.3 1.8 2.2 5.4c-2.2 2.6-1.3 4.5 2 5.3c0.9 0.2 2.1-0.2 2.2 1.5c-4.1 2.8-9.2 2.6-13.6 4.4c-3.2 1.3-8.5 8.5-7.9 11.3 c1.1 4.7 5.3 1.8 7.9 3c0.2 0.1 0.3 0.5 0.4 0.8c-0.5 1.2-1.6 1-2.5 1c-2.7 0.2-7-1.5-7.9 0.7c-1.2 3 3.1 3.8 5.3 5.4 c1 0.7 1.8 2 1.3 3c-0.9 1.6-2.2 0.5-3.5 0.1c-4.1-1.4-7.6-3.8-10.7-6.7c-1.5-1.4-2.8-1.8-4.9-0.9c-5.9 2.4-12.1 3.4-18.5 3.4 c-7.3-0.1-13.6 2.9-18.6 8.1c-3.1 3.2-3.6 7.4-1.4 11.1c2.3 3.7 7.8 4.6 10.2 3.1c5.8-3.8 10.7-1.8 16.1-0.3 c3.9-1.7 7.7-3.9 12.2-2.9c3.6 0.7 7.4 1.3 7.7 6.1c3.9 1.2 7.9 0.2 11.8 0.7c1.8 0.2 2.7-0.8 3.7-2c1.5-1.9 3.1-3.9 4.8-5.7 c3.7-3.6 8-3.9 12.1-0.8c4.3 3.3 8.4 7 14.6 6.1c-5.2 2.1-10.1 2.7-14.9-0.9c-5.6-4.2-8.1-3.6-12.3 1.7c-3.8 4.8-9.7 4.9-15.2 5.7 c0 0.2 0.1 0.5 0.1 0.7c0.4 0.4 0.7 0.9 1.1 1.3c5.7 2.6 6.9 7.2 5.9 12.8c2.8 8.7 6.3 10.8 15 9.4c4.9-0.8 9.3 1.4 13.6 3.5 c4.7 2.3 8.4 6.3 13.4 8.3c4.7-4.6 7.2-10.7 10.3-16.3c3.4-6.1 8.4-9.9 14-13.4c2.7-1.7 5.7-2.8 6.1-7c0.3-2.8 4-4.1 6.3-6 c2.6-2.1 5.4-3.9 8.3-5.6c4.5-2.7 7.4-6.4 9.2-11.3c2.2-6.4 6.3-11.5 12.6-14.8c-3.3 5-6.6 10-9.8 15c-2.7 4.2-5.8 8.5 0.3 12.6 c1 0.6 0.6 1.5-0.2 2c-2.8 2.2-4.3 5.9-8.8 5.9c-2 0-4.2 1-5.7 2.8c-0.6 0.8-1.9 1.8-1.1 2.5c3.9 3.5 0.3 6.1-0.7 9 c-1.2 3.5-4 4.9-6.8 6.8c-2 1.3-7.5 1.4-4.1 6.5c0.1 0.2-0.2 1-0.6 1.3c-6.1 6-5.7 15.5-11.6 21.7c-0.4 0.5-0.6 1.2-0.9 1.8 c-0.4 1-1.4 2.3 0 3c1.3 0.7 2-0.9 2.7-1.7c0.6-0.7 1.1-1.7 1.7-2.4c0.4-0.4 1.1-0.9 1.7-0.9c1.1 0.1 1.1 1.1 1 1.9 c-0.1 2.1 0.5 4.4-1.2 6.2c-5.8 6.2-12.3 11.6-19 16.8c-0.7 0.6-1.9 0.6-2.8 0.9c0 1.3-1.5 1.6-1.9 2.6c0 1.6-0.5 3.4 1.5 4.4 c2.1 1 3.6-0.1 4.9-1.3c2.7-2.5 5.3-5.1 7.9-7.6c0.5 1.1 0.5 2 0.1 2.3c-6.1 5-5.9 14.5-13.3 18.6c-0.6 0.3-1 1.4-1.1 2.1 c-0.3 2.7-1.6 3.5-4.3 3.7c-4.1 0.2-6.3 3.9-5.5 6.8c1.7 6.4-1.6 11.5-2.8 17.1c-1 4.5 0.4 8.4 2.3 11.8c1.6 2.9 3.5-0.2 5-1.4 c0.2-0.1 0.7 0 1 0.1c3.3 1.3 3.1-0.9 3.2-3c0.1-2.4-0.7-4.6-2-6.6c-3.2-5-2.8-9.9 0-14.8c0 0.8 0 1.6 0 2.3 c-0.1 5.9 0.7 6.5 6.6 5.2c2.3-0.5 4.4-1.8 7.7-0.9c-4.3 3.1-7 6.6-7.3 11.3c-0.1 2-0.6 3.9-1.3 5.7c2.1 2.1 1.1 4.5 0.4 6.8 c-1.3 4.5-3.9 8.6-4.3 13.5c3.7-2.4 5.1-6.3 7.1-9.9c1-1.8 1.4-4.1 4.5-4.4c-4.7 8.5-7.5 18-14.6 25.3c-0.1 1.9-0.4 3.7-2 5 c0 6.9-3.9 12.3-7.4 17.7c-3.8 5.9-5 12.3-5.9 19.1c7.3-6 12.6-13.4 15.2-22.5c0.4-1.5 0.2-4 2.5-3.6c1.9 0.3 1.7 2.6 1.6 4.3 c-0.1 1.1-0.4 2.3-0.9 3.3c-3.4 6.5-7.1 12.9-11.8 18.5c-3.3 3.9-3.5 8-3.4 12.6c0 1 0 2.1 1.2 2.5c1.2 0.3 1.8-0.5 2.4-1.4 c0.7-1.1 1.4-2.2 2.2-3.3c3.7-5 6.7-6.9 11.2-7c-0.7 1-1.3 1.7-1.8 2.5c-6.9 9.6-13.7 19.3-11.1 32.3c0.4 2 0.1 4.3 3 4.3 c3.6 0 4.1 1.7 3.4 4.8c-0.3 1.3 0.1 3.4 1 4.2c1.3 1.1 2.6-0.5 3.7-1.4c5.9-4.6 12.7-8 18.2-15c-0.6 5.8-2.9 8.9-6.4 11.5 c-10.9 8.2-22.6 15.9-23.3 31.6c0 0.3-0.2 0.6-0.4 0.9c-7.5 11.7-6.9 25-7.3 38.1c7.2 0.4 14.5 1.1 21.7-0.5 c3.5-0.8 7.2-0.5 10.8 0.1c1.3-2.5 0.6-5.2 0.5-7.9c-0.1-2.9 0.7-4.6 3.8-4.4c3 0.2 3.5-1 2.3-3.5c-2.8-5.9-1.8-11.9-0.8-18.1 c2.3-14.2 6.9-26.8 21.8-32.5c1.9-0.7 1.9-2.5 2-4.2c0.6-7.4-2.7-13.2-7.2-18.5c-3.9-4.6-6.5-9.6-6.8-15.7c-0.1-3.3-0.2-6.7-1-9.9 c-1.5-5.7-4.6-11-4.1-17.3c0.4-4.5 1.6-5.6 5.8-3.9c3.2 1.3 13.7-3.9 12.8-6.7c-1.6-5.5 2.5-8.1 4.4-11.9 c5.4-10.6 13.2-18.6 24.1-23.5c2.5-1.1 4.6-2.6 5-5.7c1.2-10.4 5.1-12.6 16.9-15.7c-0.5 1.4-1.8 1.8-3 2.4 c-6.3 3.3-11.4 7.5-11.1 15.6c0.1 2.1-1.4 3.3-2.9 4.4c-3.2 2.5-6.7 4.2-10.5 5.5c-1.8 0.6-3.5 1.2-4.4 3c-1.8 3.6-4.7 6.4-6.9 9.7 c-2.8 4.1-5.9 8.3-6.8 13.2c-1 5.4-3.4 10.1-6.4 14.4c-1.8 2.6-2.5 5.2-1.9 7.9c0.8 3.5 0.7 6.9 0 10.3c-1.3 5.9 3.2 9.7 4.9 14.6 c3.1 8.7 10.7 10.9 17.9 15.6c-0.2-5.7-1.4-9.9-4.1-13.6c-1.8-2.4-2.7-5.5-1.2-7.9c1.8-2.9 2.5-6.1 3.8-9.1c0.5-1.1 0.5-2.9 2.7-3 c-0.3 1.1-0.5 2.1-0.9 3c-4.1 8.2-2.5 15.3 4.1 21.5c4.5 4.3 6.9 9.3 5.8 15.7c-0.4 2.1 1.1 3.1 2.6 4.4c2.9 2.6 7.1 3.9 8.6 8.1 c2.3 2.2 4.5 4.4 6.8 6.6c0.5-2.8-2-6.7 2.9-8.1c0.4-0.1 0.4-1.8 0.4-2.8c0-3 0.1-6-0.1-9c-0.3-5.6-1.3-10.6-6.9-13.9 c-3.5-2.1-6.1-6.9-5.5-10.5c0.8-5-0.5-9.1-1.9-13.5c-0.9-2.8-2.4-5.4-2.5-8.5c1.7 0.2 1.7 1.6 2.3 2.5c4.3 6.6 5.2 14.3 7.4 21.6 c0.9 2.8 2.1 4.7 5.2 5.3c5.8 1.1 8.6-0.3 10.9-6.5c2.4-6.7 4.6-13.5 6.8-20.3c2.5-7.3 6.5-14.3 3.4-22.6c0.9 0.4 1.5 0.8 1.7 1.3 c1.9 3.6 2.1 7.7 3.1 11.5c0.7 2.7 2.9 3.4 5.4 3.6c2.4 0.2 4.8-0.5 6.2-2.6c1.5-2.2-0.6-3.6-1.7-5.2c-0.9-1.3-1.7-2.6-2.5-3.9 c5.5 2.1 9 6.2 12.4 10.4c2.5 3.1 5.4 5.4 9.3 6.1c-2.3-3.6 0.7-5.7 2.6-7.6c7.9-7.7 16.9-13.9 27.1-18.4c20.4-9 40.9-17.6 60-29.3 c11.2-6.9 21.2-15.4 30-25.3c3.7-4.2 8-8 12.4-11.5c10-8 20.5-15.3 30.4-23.5c10.4-8.6 22.2-12.9 35.4-14.4 c7.6-0.8 15.1-2.3 22.7-2.9c3.7-0.3 6.9-2.5 10-4.4c6.5-4.1 13.6-6.7 21-8.7c5 2.4 10.5 3.7 16.4 3.7c2.8 0 5.5-0.3 8.1-0.9 c4 3.6 8.4 2.8 12.2 0.3c4.7-3.1 8.8-4.1 13.9-0.6c4.1 2.8 6.5 1.4 6.9-3.5c0.2-2.3 1.2-3.5 2.8-4.9c8.1-7.1 17.6-12.5 24.8-20.8 c4.3-5 5.2-10.7 6.1-16.5c0.8-4.9 2.3-9.4 5.5-13.1c4.6-5.4 6.5-11.5 5.7-18.5c-0.3-3 0.6-5.6 3.2-6.8c14-6.4 21.2-19.2 29.3-31.1 c2.8-4.1 5.9-7.9 7.1-13c0.8-3.5 1.3-6.7-0.7-10c-1.8-2.9-0.4-5.9 0.9-8.6c5.3-11.5 10.7-22.9 16.2-34.3c1-2.2 1.3-4.4 1.3-6.8 c0.2-26.9 7.8-51.5 26-71.4c7-7.7 10.2-17.7 18-24.5c1.2-1.1 1.8-2.9 3.9-2.7c0-2.7 0-5.3 0-8C697.3 345.3 699.2 333.7 697.5 322.9 z M192.5 715.8c0.3-0.3 0.6-0.5 1-0.8c0.1 0.2 0.2 0.4 0.3 0.5C193.3 715.7 192.9 715.7 192.5 715.8z M196.7 714.6 c-0.5 0.1-1.1-0.1-0.6-0.7c0.3-0.3 0.7-0.5 1.1-0.8c0.2 0.3 0.5 0.6 0.5 0.7C197.5 714 197.1 714.4 196.7 714.6z M222 773.4 c0.1 0 0.2 0 0.2 0.1c0 0.1 0.1 0.1 0.1 0.2C222.3 773.6 222.2 773.5 222 773.4z M222.6 774.2c0-0.1-0.1-0.2-0.1-0.3 c0.1 0.1 0.2 0.2 0.4 0.4C222.8 774.3 222.6 774.3 222.6 774.2z" class="svg"/></g></svg>