<svg xmlns="http://www.w3.org/2000/svg" xmlns:xlink="http://www.w3.org/1999/xlink" version="1.1" id="Layer_1" x="0px" y="0px" viewBox="0 0 399.9 895.7" enable-background="new 0 0 399.9 895.7" xml:space="preserve"><g><path d="M378.1 820.7c2.3 2.2 4.5 4.4 6.8 6.6c2.6 5.7 5.2 11.5 7.7 17.3c1.6 3.7 2.2 7.2-1.5 10.4 c-2.3 2-2.9 3.9 1.1 5.8c5.8 2.9 6.1 6.3 1.7 10.9c-2.6 2.7-2.1 4.5 0.7 6.4c1.4 0.9 2.8 1.8 4 2.9c1.1 1.1 2 2.6 0.7 3.9 c-3.9 4-7.1 9-13.5 9.5c-0.7 0-1.3 0.3-1.9 0.5c-10 2.5-16.1-0.2-20.8-9.5c-2.8-5.7-5.1-11.6-5.1-18.1c-0.1-9.6-4.3-18-7.8-26.6 c-1.9-4.7-1.6-8.7 2.2-12.3c1-0.9 1.8-2 2.7-3C363.1 816.8 367.7 815.9 378.1 820.7z" class="svg"/><g><path d="M0 467.2c3-2.8 5.7-5.9 8.9-8.6c2.8-2.3 3.6-5.9 3.1-9.6c-0.3-3 0.1-4.9 4.1-5c4.2-0.1 6.7-2.6 6.2-7.2 c-0.2-1.9 0-3.8 0-6c2.3 1.3 2.7 3.3 2.6 4.5c-0.4 5.8 4.8 8.3 6.8 12.7c1.3 2.8 5 0.4 8.1 2c-5.6 3-9.6 7.3-13.9 11.2 c-2.1 2-4.7 3-7.7 2.8c-3.2-0.2-4.1 1.2-3.8 4.6c0.4 4.2-0.5 8.5-0.8 13.3c-4.4-4.1-8.9-7.5-13.5-10.7C0 469.9 0 468.6 0 467.2z" class="svg"/><g><path d="M140.8 144c-6.6 4.8-8.2 13.7-3.8 20.2c2.6 3.8 5.2 7.7 7.7 11.6c0.9 1.4 2 2.9-0.6 3.9 c-0.8 0.3-1.5 1.4-0.7 2c4.2 2.8 2.2 8.4 5.5 11.7c1.3 1.3 1.9 3.6 0.5 5c-1.8 1.8-3.2-0.4-4.7-1.1c-1.5-0.8-2.4-2.1-3.2-3.6 c-2.6-4.9-8-4.9-12.3-6.7c-1.1-0.5-1.2 0.7-1.3 1.6c-0.3 2.7 1 4.5 3.1 5.8c2.8 1.6 4.2 4.4 4.8 7.3c0.7 3.4-0.2 5.9-4.5 5.8 c-2.2-0.1-5-1.7-5.4 2.9c-0.1 1.7-3.8 2.3-6.2 1.7c-1.2-0.3-2.7-0.9-3.1 0.4c-1 4.2-5 5.4-7.6 7.9c-0.7 0.6-1.3 1.2-1.1 2 c1.1 5.5-5.6 6.1-6.6 10.4c-0.3 1.4-2.7 0.3-3.8-0.8c-4.3-4.4-8.4-9-12.6-13.5c-0.3-0.4-0.8-0.9-0.7-1.3c1.7-5.7-2.1-7.4-6.3-9.4 c-2.1-1-2.3-3.3 0.7-4.2c2-0.6 4.1-1.7 6.3-0.9c3.8 1.3 6.8 0.1 9.3-2.9c2.3-2.7 5.2-4.7 8.8-5.4c1.2-0.2 2.9 0 3-2 c0.1-1.4-1-2-2.1-2.5c-3.9-1.7-2.9-3.7-0.5-5.9c4-3.6 8.5-5 14.5-2.1c-1.5-4.8-3.4-7.5-7.4-9c-5.6-2.2-11.4-3.7-17.2-5.2 c-5.6-1.5-10.3-3.1-13.4-9c-2.3-4.3-5.8-8.5-10.1-11.6c-0.9-0.7-2-1.5-1.5-2.9c0.5-1.4 1.9-1.2 3-1.2c3.9 0.2 8.2-1.1 10.9 3.2 c0.7 1.1 1.8 1.2 2.5 0.4c3.8-4.4 9.3-4.5 14.3-6.5c-3.2 0-6.4 0.1-9.5 0c-4.4-0.1-5.1-1.5-2.9-5c0.7-1.1 2.3-2.1 0.9-3.4 c-1.3-1.3-2.9-0.4-4 0.7c-3.8 4-5.6 1.9-7.3-2.1c-3.2-7.6-4.9-15.2-0.3-22.9c1.3-2.2 2.3-4.7 1.4-7.6c-1.1-3.9 1.1-4.3 4.1-3.3 c3.3 1.1 6.6 2.2 10.6 1.1c-1.3-2.7-3.9-3.9-5.6-5.6c-2.5-2.5-3-4.9-1.6-8.1c1.5-3.2 4.2-2.7 6.8-2.7c1.9 0.1 3.7 0.7 5.1 1.9 c2.4 2.1 4.7 3.3 8.1 2.1c1.5-0.5 3.6-0.1 4 2c0.5 2.2-0.3 4.3-1.8 5.9c-0.9 0.9-2.3 1.2-3.9 2c3.3 2.3 6.8 2.5 10 3.5 c1.2 0.4 1.7 0.1 2.2-1.2c1.4-3.6 4-6.6 0.3-11c-2.3-2.7-1.9-7.6-2.7-11.5c-0.2-0.8-0.7-1.7 0.1-2.3c1-0.8 1.9-0.1 2.6 0.7 c5.4 6.1 11.6 11.4 14.8 19.2c1.2 2.9 2.2 6 6.5 6.5c-2.2-9.2-5.1-17.7-11.9-24.2c-1.7-1.7-3.1-3.6-3.4-6 c-0.5-3.7 0.6-7.4 4.7-7.3c5.6 0.2 9.6-2.8 13.4-5.8c6.1-4.7 12.9-7.5 20.2-9.4c3.9-1.1 6.3-3.5 8.8-6.7 c6.7-8.9 14.6-16.8 24.8-21.9c6.7-3.4 13.5-6.3 15.6-14.8c0.8-3.4 3.4-3.8 5.8-0.6c2.7 3.6 6.3 6.7 8.1 10.7 c2.5 5.3 2 11.3-0.2 16.8c-0.8 2-2.2 3.7-3.2 5.7c-2.8 5.6-2.4 6.9 3.1 10.3c4.1 2.6 4.1 3.4 0.3 6.5c-3.1 2.5-6 5.3-7.8 9 c-1.1 2.3-2.5 4.4-4.5 5.9c-8.6 6.6-10.4 17.3-16.7 26.2c8.1 0.5 14.7-1.6 21.3-4c1.8-0.7 2.9-2.2 3.4-4.1 c1.1-3.3 3.7-5.5 5.8-8.1c0.8-1 2.1-2 3.5-1.6c1.8 0.4 1.1 2.1 1.2 3.4c0.4 5.1-1.6 9.8-2.4 14.7c-0.4 2-2.4 3.1-4.2 4 c-2.7 1.4-5.4 2.6-8 4.1c-3.1 1.7-5.4 2.1-5.4-2.6c0-0.6-0.3-1.3-0.7-1.8c-1.3-1.6-11.2-1.4-13.4 0.7c-2.9 2.8-2.8 6-0.4 9.3 c2.7 3.9 0.4 8.6-4.3 8.8c-2.5 0.1-4.5 0.5-5.7 3c-0.9 1.9-3.1 2.4-4.9 3.2c-3.2 1.3-6.4 2.6-9.6 4c-0.1 0-0.1 0.3-0.4 1.2 c6.3-2 12.7-1.7 18.6-4.2c2.3-1 3.2-0.4 4.3 1.5c4.2 7.6 3.9 11.8-1.7 16.9c0.9 1.6 4.8 1.7 2.7 4.6c-2.4 3.4-5 7-9.8 6.5 c-3.8-0.5-7.6-0.6-11.5-0.5c0.2 0.4 0.4 0.7 0.6 0.8c2.4 1.5 6.7 0.4 7.1 4.4c0.6 5.1 0.7 10.4-2.4 15c-0.8 1.1-1.9 1.9-3.3 1.9 c-3.4-0.1-6.3-0.2-8 3.9c-1 2.4-5.1 1.3-6.8-1.6c-2-3.5-2.9-7.7-6.6-10.9c-0.7 3.6 1 5.9 1.8 8.4c0.5 1.6 1.3 3.6-0.3 4.6 c-2 1.1-3.9-0.2-5.1-1.9c-2.9-4.3-6.1-8.4-8.3-13c-3.1-6.4-0.8-13 0.5-19.5c0.3-0.4 0.6-0.7 0.9-1.1c0.1-0.2 0.3-0.4 0.4-0.5 c-0.2 0.2-0.3 0.3-0.5 0.5C141.6 143.5 141.2 143.7 140.8 144z" class="svg"/><path d="M279 375.3c4.8 0.3 8.1-3.5 12.2-5c0.3-0.1 0.5-0.5 0.8-0.6c4-1.5 8.7 2 12.6-2c0.4-0.4 3.5 3 3.6 5.7 c0.3 2.7-3.5 3-3.3 5.7c-1.3 1.2-0.8 2.7-0.7 4.2c0.1 1-0.3 2.2 0.7 2.9c-0.7 3.4-2.3 5.9-5.7 7.5c-3.9 1.8-7.5 4.1-11.3 6 c-2.9 1.5-4.6 3.7-3.6 6.8c1.7 5.6 0.9 10.1-4.3 13.4c-9.9 4.7-16.5 13.8-25.5 19.7c-1.5 1-2.7 3.6-5 1.6c-2-1.8-4-3.9-2.9-6.9 c1.4-3.8 1.8-7.3-0.2-11c-1.3-2.2 0.9-3.6 2.2-5c7.3-7.3 15.7-13.3 23.9-19.6c0.9-0.7 2.1-1.1 2.1-2.9c-4.8 0.5-8.8 3.5-13.7 3.6 c-3.6 0-6.2 0.1-5.1-5c1.1-5.4-3.1-7.7-7.1-10.1c-1 1.9-0.2 3.3 0.2 4.7c2.2 9.6-2.3 17.2-7.9 24.2c-2 2.5-3.9 1.1-5-1.1 c-2.2-4.2-2.8-8.8-2.9-13.5c0-1.5 0.2-3.2-1.4-4c-1.6-0.8-2.7 0.5-4 1.4c-5.2 3.6-11.3 4.9-17.2 6.2c-3.7 0.9-6.3-0.5-4.8-5.3 c1-2.9 0-4.2-3.2-2.9c-2.7 1.1-5.4 0.5-7.5-1.4c-2.3-2.1-0.2-4.3 0.6-6.4c1.4-3.7 2.8-6.7-3.7-5.3c-2.5 0.6-5.1-0.8-6.8-3.4 c-3-4.8-5.6-9.9-7.9-15c-1.1-2.5-1.4-4.2 2.1-5.7c6.6-2.8 11.2-2.6 16.2 2.4c1.7 1.7 3.5 2.5 6 1.7c-3.4-3-6.7-5.9-10.1-8.8 c-0.7-0.6-1.8-1.6-2.5-1.5c-7.7 1.6-8.9-4.3-11.1-9.2c-1-2.2-1-5-3.7-6.2c0-0.1 0-0.3-0.1-0.4c0-0.1-0.2-0.1-0.3-0.1 c0.1 0.1 0.3 0.3 0.4 0.4c-0.3 1.5-1.1 2.2-2.8 2c-5.5-0.6-7.5 1.1-8.1 6.6c-0.1 0.8-0.1 1.7-0.2 2.5c-0.4 3-1.4 4.9-4.7 2.5 c-4-3-8.9-2.4-13.4-3.1c-5.1-0.8-7.1-3.7-6.8-8.6c0.4-5.2-0.6-9.3-6.9-10.1c-2.2-0.3-2.2-2.2-2-3.9c0.1-1 0.2-2.2 0.8-2.8 c4.8-5 3.6-11.3 3.8-17.2c0.1-4.2 1.8-4.6 4.9-2.8c4.9 2.9 9 6.7 11.8 11.9c1.2 2.2 2.6 4.3 4 6.3c0.9 1.4 2.1 2.5 3.7 1.6 c1.9-1.2 0.6-2.6-0.2-3.8c-1.6-2.4-3.4-4.5-4.9-6.9c-1-1.5-3.2-3.1-1.3-5.2c1.6-1.8 3.6-2.9 6.2-2.5c2.2 0.3 5.2 2.3 6.3-0.1 c1.2-2.6-2.2-4.1-4-5.6c-6.6-5.4-9.3-12.4-9.1-20.7c0.1-4.3 1.5-5 5.3-2.9c4.5 2.6 9.4 4.9 6.6 11.8c-0.9 2.3 0.8 4.4 2.6 6 c4.4 3.8 9.6 6.6 13.2 11.3c0.8 1 1.8 1 2.6 0.4c5.5-3.5 10.4-2.4 15.1 2.9c0-1.5 0.2-2.1 0-2.3c-5.6-6.4-6-13.4-2.6-20.9 c1.2-2.7 0.9-5.2-0.7-7.6c-1.4-2.1-2.6-4.3-4.3-6.1c-3.8-3.9-3.7-7.4 0.1-11.1c2.6-2.6 3.8-5.7 3.8-9.5c0-1.8 0.6-3.6 1.3-5.3 c1.2-2.7 3-3.4 5.2-0.7c5.3 6.4 10.6 12.8 15.9 19.2c1.1 1.3 2.5 2.3 3.3 3.7c1.5 2.6 3.4 3 6.2 2.3c5.4-1.4 6.1-0.6 6.1 4.9 c-0.1 7.9-3 15.3-4.3 23c-0.6 3.4-1.4 6.3 1.6 9.6c3.1 3.2 0.4 15.7-3.6 18.9c-2.2 1.8-2.3 2.8 0 4.4c5.5 3.7 9.4 7.9 8.2 15.6 c-0.6 4.1 2.1 7.9 5 11.1c1.9 2.1 4.1 3.9 6 6c4.2 4.4 4.4 4.4 8-0.5c0.9-1.2 2.1-2.2 2-3.9c1.3 0 2.6 0 3.9-0.1 c3.9-0.3 6.2 1.2 6.1 5.5c0 1.2 0.7 2.5 1 3.7c-0.6 2.5-4.3 4.3-1.9 7.4C266.3 375.7 273.9 377.3 279 375.3z" class="svg"/><path d="M254.9 578.1c2.8 8.7 6.3 10.8 15 9.4c4.9-0.8 9.3 1.4 13.6 3.5c4.7 2.3 8.4 6.3 13.4 8.3 c2.1 3.8 5.8 5.8 9.5 7.5c3.9 1.8 3.5 5 1.4 6.5c-2.3 1.7-1.6 2.7-1.2 4.6c0.4 2.6 1.7 6.4-0.7 7.8c-2.4 1.3-5.3-1.2-7-3.4 c-1.4-1.8-2.3-1.7-3.1 0.1c-0.8 1.5-3.3 2.7-2.1 4.6c1.2 2 3.4 1.3 5.4 0.5c0.9-0.4 2.1-0.6 2.7 0.3c0.6 0.9-0.1 1.8-0.5 2.7 c-1 2.1-3 3.6-3.2 6c0 1.3-1.5 1.6-1.9 2.6c-6 7.1-13.9 9-22.8 8.3c-3.8-0.3-3.3-1.8-1.7-4c0.3-0.4 0.6-0.8 0.9-1.2 c1.2-1.6 3.9-3.4 1.4-5.3c-2.2-1.6-3.3 1.4-4.5 2.7c-2.9 3-7.3 3.3-10.4 5.7c-10.6 8-22.9 8.8-35.5 9c-4.2 0.1-8.3 0.6-10.8 5.3 c-1.8 3.4-12.6 1.2-13.4-2.9c-0.7-3.6-3.1-4.8-5.2-6.8c-1.3-1.3-4-2.1-2.9-4.6c1.1-2.5 2-5.8 5.4-5.9c4.7-0.2 9.4 0.4 14.1 1.1 c4.6 0.7 9.9 2.3 14.8 0.7c5.2-1.7 10.4-3.6 15.6-5.2c3.8-1.2 6.7-3.6 9.3-6.4c0.7-0.8 2.5-1 1.5-2.5c-0.7-1-2.1-0.8-3.2-0.2 c-4 2.3-8 4.8-12 7.1c-4.3 2.5-8.8 1.6-13 0c-3.1-1.2-2.7-4.6-3-7.4c-0.3-2.8 1.3-4.3 3.5-5.5c3.8-2 6.5-4.5 5.8-9.4 c-0.5-3.3 2.2-3.8 4.5-4.1c8.5-1.3 14.3-7.1 20.9-11.9c-8.2 2.5-16.8 3.2-24.5 7c-4.6 2.2-18.5-0.1-22-3.8c-1-1.1-3.2-2.1-1.5-4 c1.3-1.5 3.1-1.9 5-0.8c5.5 3.2 11.7 3.3 18.1 4.5c-3.8-8.1-9.6-11.6-18-11.2c-3.9 0.2-8 0.9-11.1-2.9c-1.6-2-2.3-3.6 0.2-5.4 c0.9-0.7 1.6-1.7 2.5-2.4c2.7-2.1 3.5-3.9-0.5-5.5c-1.3-0.5-2.8-1.6-2.4-3.4c0.4-1.6 1.8-2.9 3.3-2.5c7.9 2.2 12.3-2.6 16.5-7.9 c0.6-0.8 1.3-1.5 2-2.2c3.9-1.7 7.7-3.9 12.2-2.9c3.6 0.7 7.4 1.3 7.7 6.1c1.5 1.6 2.9 3.2 4.4 4.8c-0.1 0.3 0 0.6 0.3 0.7 c0.4 0.5 0.7 0.9 1.1 1.4C251.3 569.4 250.9 574.7 254.9 578.1z" class="svg"/><path d="M45.6 405.8c4 1.7 8.4 1.2 11.2 4.7c1.9 2.4 4.4 4.9 2.6 7.9c-1.9 3.2-5.3 1.8-8.1 0.8 c-1.2-0.4-2.4-1.2-4.3-0.5c3.3 3.7 3.9 7.9 2.4 12.4c-0.5 1.4-0.4 3.5-2 3.7c-1.9 0.3-1.9-2-2.5-3.2c-0.5-1-1-2.2-1.1-3.3 c-0.4-3.8-1.6-6.2-6.2-6.7c-3.7-0.4-4.9-4.4-5.4-7.7c-1.2-8.1-3.9-15.8-5.8-23.6c-2-8.3-1.3-17.7 2.7-25.2 c4.6-8.7 2.1-15.9-0.9-23.8c-0.9-2.4-4.5-5.6 1.6-6.7c1.4-0.2 1.2-2.2 1.2-3.5c0.1-4.7 0.3-9.3-0.6-13.9 c-0.7-3.6-1.7-7.3 1.4-10.8c1.3-1.5 1.4-4 1-6.3c-0.2-1-0.7-2.1-0.5-2.9c0.8-2.6-0.4-7 3.9-6.9c3.8 0.1 3.5 3.8 3.6 6.6 c0.1 2 0.1 4 0.1 6c0 2.2 0.8 3.6 3.2 3.4c2.9-0.2 6.7 1.1 8.1-2.2c1.4-3.3-2.7-3.9-4.4-5.7c-2.2-2.5-4.5-4.7-5.9-7.9 c-2-4.5-7.3-5.5-10.7-8.7c-0.2-0.2-0.9 0-1.2 0.2c-6.8 3.5-19-1.4-21.6-8.8c-0.7-2-0.5-3.9 1.7-5.1c4.7-2.6 7.3-6.5 7.1-12 c-0.1-2.3 1.6-2.3 3.1-2c3.3 0.5 6.6 1 9.7 2c5.7 1.8 9 0.7 11.9-4.7c0.3-0.6 0.7-1.1 1.3-2.1c1.3 2.2-1.8 4.6 1.3 6.3 c3.5 1.9 5.8 1.4 8-1.7c2.5-3.5 5.1-7 9.8-8.1c4.1-1 7.8 1.9 7 6c-0.8 4.3 1.5 5 4.4 4c2.9-1 4.7 0.1 6.8 1.5 c3.3 2.2 4.6 5.3 2.2 8.5c-2.2 3-5.6 3.1-8.8 0.7c-2.3-1.6-4.8-3-7.3-4.4c-1.6-0.9-3.4-1.4-5.2-0.5c-0.8 0.4-2.3 0.3-2.2 1.6 c0 0.6 0.9 1.3 1.6 1.7c2 1.1 4.1 2.1 6.3 3.1c2.3 1.1 4.2 2.6 5.4 5c0.6 1.2 1 2.9 2.6 2.7c5.4-0.4 4.2 2.2 3 5.5 c-1.6 4.7-1.9 9.8-4.5 14.2c-0.9 1.4-0.2 2.9 0 4.4c0.7 5.2-1.6 7.8-6.8 7.5c-0.9 0-1.5 0-2.2 0.6c-2.7 2-3.1 2.1-6.3 1.4 c1.7 2.8 1.9 5.4 0 7.9c-1 1.3-0.5 2.7 1 3.2c5.6 1.9 2.7 3.8 0 5.5c0.6 2.1 2.5 2.3 3.8 3.1c2.3 1.4 2.8 3.9 1.7 5.6 c-1.3 2.4-3.3 0.1-4.4-0.8c-4.1-3.2-8.7-3.7-13.7-2.8c0.3 2.2 2.3 2.5 3.5 3.3c2.4 1.7 6.1 2.7 1.9 6.4c-1.3 1.1 0.3 1.6 1 2 c1.4 0.8 2.9 1.7 4.4 2.3c2.5 1 3.9 1.9 2 5c-2.2 3.6 0.7 6.4 3 8.6c2.8 2.7 2.4 4.8-0.2 7c-3.4 2.9-5 7-7.6 10.5 c-1.8 2.4-3.1 5-6.9 4.8c-2.2-0.2-2.3 1.4-1 3c0.3 0.4 0.8 0.6 1.1 1C54.1 392.9 53.7 398.8 45.6 405.8z" class="svg"/><path d="M298.8 695c2.1 2.1 1.1 4.5 0.4 6.8c-1.3 4.5-3.9 8.6-4.3 13.5c-2.7 3.2-3.5 6.9-3 11l0.1-0.1 c-1.8 1.3-2.7 3.3-3.7 5.1c-7.3 7.4-11.4 16.2-12.3 26.5c-0.4 4.6-2.9 8.2-6.2 11.1c-5.8 5.1-8.5 11.1-8.1 18.9 c0.4 7.2-1.9 9.1-8.9 8.2c-12.3-1.6-17.4-3.6-14.8-19.2c0.8-4.6 2.1-9.1 3.3-13.6c0.7-2.7 2.4-4.8 4.8-6.1 c4.5-2.5 9.1-4.8 13.6-7.3c1.3-0.7 3.2-0.9 3.8-2.9c-1.8-1.2-3.9-0.5-5.8-0.9c-5.3-1.1-6.9-4.1-4.6-9.1 c3.9-8.6 11.8-13.5 18.8-18.9C281.3 710.9 290.4 703.4 298.8 695z" class="svg"/><path d="M203.7 466.1c-3.5 0.2-6.3-1.2-7.2-3.5c-1.9-4.7-5.8-7-9.3-9.9c-5.7-4.7-5.6-7 0.4-11.2 c4.2-3 8.3-6.1 13.3-7.6c1.9-0.5 4-1.9 5.2 0.6c1.5 3.1 9.7 1.9 5.5 8.6c-0.6 1-0.5 2.1 0.6 2.5c3.7 1.6 2.6 4.4 1.9 7.2 c-1.1 4.7-4.6 8-6.7 12.1C206.5 466.5 204.6 466 203.7 466.1z" class="svg"/><path d="M115.6 594.6c-0.2 3.7-3.1 6.4-2.7 10.3c0.2 1.6-1.1 3.3-3.1 3.2c-2.5-0.1-5.5 1.1-7.4-1.7 c-2.2-3.3-4.1-6.8-6.2-10.2c-1.7-2.8-1.3-5.2 1.4-6.9c4.3-2.8 7.9-7.1 14.2-3.1c2.6 1.7 6.2-1 8.5-2.9c3.9-3.2 8.9-1.5 13-4.1 c1.5-0.9 4.4 1 4.7 3.9c0.3 3.1-1.9 3.5-4.2 3.7c-1.7 0.2-3.3 0.1-5 0.2c-1.7 0.1-2.6 0.5-2.9 2.5 C124.5 598.3 122.9 599 115.6 594.6z" class="svg"/><path d="M179.9 546.1c-0.5 1.1-1 3.2-2.2 4.6c-5.1 6.1-10.5 12-15.7 18c-1.4 1.6-2.7 2.4-5.2 1.7 c-4-1.2-7.4 1.3-10.7 3.2c-2.4 1.4-4.5 1.9-5.8-1c-1.1-2.4 0.9-3.4 2.5-5.1c7.9-7.6 18.5-12.1 24.9-21.5c1.6-2.4 3.8-4.1 6.6-5.1 C178 539.8 180.3 541.5 179.9 546.1z" class="svg"/><path d="M229 485.3c-6.1 0-8.3-1.9-8.1-6.9c0-0.8 0.2-2.2 0.5-2.3c5-0.9 6.1-5.7 9-8.7c1.6-1.7 2.6-0.4 3.6 0.7 c3.2 3.6 3.7 11.6 1.1 15.5C233.5 486.3 230.9 484.9 229 485.3z" class="svg"/><path d="M158 434.4c3.5 1.5 6.9 1.3 9-4c0.8-2.1 4.2-3 6.1-1.5c2.4 2-0.2 3.7-1.5 5.2c-2.6 3.1-6.2 4.2-10 5 c-2.2 0.5-4.4 1.4-6.6 2c-1.5 0.4-3.2 1.9-4.4-0.1c-1-1.8-0.1-3.5 1.2-5C153.1 434.4 155.1 434.2 158 434.4z" class="svg"/></g></g></g></svg>