<svg xmlns="http://www.w3.org/2000/svg" xmlns:xlink="http://www.w3.org/1999/xlink" version="1.1" id="Layer_1" x="0px" y="0px" viewBox="0 0 534.1 524.1" enable-background="new 0 0 534.1 524.1" xml:space="preserve"><path d="M529 214.1c-3.9-1.7-7.1-4.2-10.4-6.7c-2.6-1.9-4.2-4.4-4.5-7.5c-0.5-5.8-3.5-10.3-7-14.6 c-2.6-3.3-3.9-7.3-5.9-10.8c-3.5-6.1-7.9-11.8-12.4-17.2c-2.7-3.3-7.7-3.2-12.4-3.5c-8.1-0.6-17.1 0.1-23.5-7.7 c-3.9-4.7-10.1-7.3-14.4-12.1c-2.1-2.4-6.1-1.3-9.1-1.3c-5.3-0.1-8.9-1.5-11.5-6.7c-3.4-6.8-8.7-11.8-17.5-9.9c-1 0.2-2.1 0.3-3 0 c-10.2-3.1-16.5 1.8-21.2 10.1c-1.1 1.9-2.6 3.5-3.8 5.2c-7.9 11.2-15.3 14.1-28.9 11.1c-3.2-0.7-6.5-1.7-9.5-2.9 c-5.3-2.2-10.5-2.9-16.1-1.3c-4.5 1.3-8.9 0.7-13.2-1.1c-0.5-0.2-1-0.5-1.5-0.7l-0.2 0.1l-0.2-0.2c-0.5-0.3-1-0.6-1.5-0.9l-0.3 0.1 l-0.2-0.2c-0.5-0.3-1-0.6-1.5-0.9c-0.8-0.4-1.7-0.7-2.5-1.1c-0.3-0.1-0.6-0.2-1-0.3c-0.8-0.2-1.6-0.5-2.3-0.7l-0.2 0.2L293 132 l-0.3-0.2c-0.5-0.2-1-0.4-1.5-0.6l-0.3 0.1l-0.3-0.2c-9.6-1.1-19.2-1.5-28.8-2.5c-8.6-0.9-16.3-4.7-23.2-10 c16.9 4.1 33.2 10.8 51 10.4c0.2 0 0.3 0 0.5-0.1c15.8-7.4 34.6-10 43.5-28.5c4.7-9.9 13.6-15.2 24.3-17.4c2.8-0.6 5.6-0.5 8.3 0.7 c7 3.1 13.7 1.9 19.9-2.1c8.1-5.2 16.1-10.6 24.1-16c2.6-1.8 4.7-4.1 6.8-6.6c1.6-2 1.9-4.2 1.4-6.6c-2-8.9-9.7-15.7-18.9-16.7 c-5.3-0.5-10.8-0.2-13.9-5.9c-0.2-0.4-0.8-0.7-1.2-0.7c-7.6 0.5-3.4-3.7-2.6-6.5c0.5-1.7 1.4-3.4 1.7-5.2c0.9-4.9-0.9-7.7-5.9-8.5 c-6.2-1-12.2-0.6-18.5 1.3c-9.6 3-17.7 8-25.7 13.5c-7.5 5.2-16.1 8-24.3 11.6c-4 1.8-6.9-0.6-9.4-3.3c9.9 1.2 16.6-4.3 23-10.8 c6-6.1 12.8-11.5 19.9-16.2c0-1 0-2 0-3c-1.9-0.6-3.4-2.2-5.5-2.2c-7.4 2.1-14.5 4.7-21.1 8.8c-3.1 1.9-6.2 4.1-10 4.4 c-7.6 0.6-15.1 2.1-22.7 2.9c-13.2 1.5-25 5.7-35.4 14.4c-9.8 8.2-20.3 15.5-30.4 23.5c-4.4 3.5-8.7 7.3-12.4 11.5 c-8.7 10-18.7 18.4-30 25.3c-19 11.7-39.6 20.3-60 29.3c-10.2 4.5-19.2 10.7-27.1 18.4c-1.9 1.9-4.9 4-2.6 7.6c1.4 2 1 4-0.5 5.4 c-1.5 1.5-3.4 0.6-5.2-0.1c-5.1-2.1-10.1-4.3-15.2-6.3c-6-2.4-8.7-0.9-9.9 5.4c-0.5 2.4-0.8 5.5-3.1 5.8c-5.9 1-4.2 4.7-4 8.4 c0.6 11 0.8 22 4.8 32.4c1.4 3.7 0.6 6.5-2.3 9.4c-4.1 4.1-5 14-1.4 15.9c4 2.1 5.1 5.2 6 9.1c1.5 7.4 10.1 12.4 17.9 12.1 c3.1-0.1 7.9-1.7 9.9 3.3c3.6 9.1 4.1 19.1 8 28.1c1.3 2.9 2.2 5.9 2.3 9.1c0.1 3.6-0.7 6.3-5 6.4c-1.9 0.1-3.5 1-4.8 2.4 c-3.2 3.4-6.9 5.7-11.6 6.1c-2.1 0.2-2.6 1.1-2.1 3.4c1.5 6.8-1.1 12.5-6.7 15.9c-4.6 2.8-5.8 6.2-6.1 11 c-0.5 8.8-0.5 17.8-6.3 25.3c-4.9 6.3-10 12.4-15.2 18.5c-1.6 1.8-3 3.6-3.1 6.1c-0.2 5.2-1.9 10.2-3.7 15 c-2.9 7.6-4.3 15.5-3.5 23.5c0.7 6.4 1.9 12.8 4.9 18.7c0.6 1.3 1.1 3.6-0.3 4.1c-2.2 0.8-1.9-1.8-2.3-3c-2.7-7-3.7-14.5-5.4-21.8 c-0.6-2.8-1.8-5.4-5.1-5c-4.5 0.5-8.8 2-11.4 6.2c-4.3 7-7.5 14.2-2 22.2c1 1.5 1.2 3.8 1.4 5.8c0.7 6.5 4.1 11.1 9.6 14.3 c5.8 3.4 10.1 8.2 13.5 13.8c3.5 5.9 6.1 12.2 8.7 18.5c1.9 4.4 2 8.6 0.8 13.1c-1.8 7-2 13.9 3.7 19.5c2.7 0 5.3 0 8 0 c5.9-4.3 8.1-13.7 3.9-19.8c-6.2-8.9-8.1-19.3-10.6-29.4c-1.4-5.8 2.7-9.6 6.8-12.9c1-0.8 2.4-1.1 3.5-2c6.4-5.2 6.5-5.3 12.6 0.3 c3.4 3.1 7.5 4.9 11.1 7.7c2.9 2.3 6.6 3.6 7.5 8.1c0.5 2.2 3.3 3.1 5.4 4.1c7.9 3.9 13.3 10.4 19.1 16.8c4.5 5 10.6 9.3 18 9.7 c6.9 0.4 11-4.2 9.1-11.4c-2-7.5-0.3-14.1 2.4-20.9c0.8-2-0.2-3.7-1.5-4.3c-6.1-2.6-6.6-8.8-8.8-13.8c-1.2-2.7-4.7-6.6-1.4-8.9 c2.5-1.8 5.3 2.5 7.6 4.2c4.2 3.2 6.9 8.1 12 10.3c3.7 1.6 6.7 2 8.9-2.1c0.6-1.1 1.5-2.5 3.1-1.9c1.6 0.7 0.9 2.2 0.8 3.5 c-0.7 5.3 5.9 17 10.8 19c4.5 1.8 8-0.2 8.7-5.1c0.2-1.6 0-3.3 0-5c0-1.6-0.7-3.5 1.3-4.4c0.8-0.4 1.7-0.1 2.2 0.6 c1 1.4 1.7 2.7 1.2 4.6c-1.5 5.6 0.3 9 5.6 11.1c2.9 1.1 5.7 0.6 8.2-0.8c8.1-4.6 16.1-9.4 24.1-14.1c0.7-0.4 1.6-1.6 1.5-1.8 c-2.9-4.1 3-8.7-1.5-12.5c2.5-0.9 3.5 0.1 4.1 1.3c1.9 4.1 4.4 4 7.4 1.3c4.9-4.3 10.7-2.7 16.3-2.7c7.6 0 10.4-1.8 13.3-8.8 c1.1-2.6 1.1-5.1 0.4-7.8c-1.4-5.1-3.1-10.2-3-15.8c6.8 7.8 15.2 7.3 23.8 5.1c3-0.7 5.6-0.3 8.3 0.6c11 3.8 21.9 3.2 32.6-1.1 c2.9-1.1 4.2-0.5 5.3 2.3c1.3 3.5 0.7 6.9-0.1 10.3c-0.5 2-0.2 2.8 2.2 3.2c9.4 1.6 15.5-1 20.6-9.3c1.6-2.5 4-4 6.3-5.5 c7.3-4.9 14.9-9.5 21.6-15.3c2.8-2.4 6.5-3.3 10-4.2c7.4-2 12.8-6.4 17.4-12.6c11.2-15.3 23.9-29.3 37.6-42.6 c7.2-7.1 15.4-9 24-11.8c1.8-0.6 3.7-1.8 4.9-3.3c9.9-11.3 22.8-18.8 34.5-27.9c4-3.1 5.8-5.4 2.7-10.4c-3.1-5.1-3.2-11.5-5.7-17 c-2.1-4.7-3.6-9.6-7-13.7c-2.4-2.9-2.4-5.7 0.7-8.7c2.4-2.3 4.9-4.5 7.5-6.6c3.4-2.8 6.5-6 7.2-10.5c0.7-4 2.9-6.6 6.3-8.5 c4.4-2.4 8.4-5.3 11.7-9.2C535.4 219.3 535.2 216.9 529 214.1z M299.3 31.6c0.1 0.1 0.2 0.3 0.2 0.4c-0.1 0-0.2-0.1-0.2-0.1 C299.2 31.9 299.3 31.7 299.3 31.6z" class="svg"/></svg>