<svg xmlns="http://www.w3.org/2000/svg" xmlns:xlink="http://www.w3.org/1999/xlink" version="1.1" id="Layer_1" x="0px" y="0px" viewBox="0 0 332.9 167.4" enable-background="new 0 0 332.9 167.4" xml:space="preserve"><style>.style0{fill:	#4B77BE;}</style><path d="M332.3 32.4c-0.7-4.7-2.3-9-3.4-13.4c-1.4-0.9-2.8-1.8-4.1-2.8c-6.4-4.7-9.6-4.8-16.2-0.6 c-2 1.2-4 2.3-6.3 2.7c-11 1.9-21.7 0.7-32.1-3.3c-5.8-2.2-11.8-3.7-18-2.9c-5.9 0.8-11.6-0.1-17.2-1.5c-7-1.7-13.8-1.5-20.4 1.9 c-3.2 1.7-6.5 3.3-9.9 4.6c-4.8 1.9-9.6 3.3-14.9 1.1c-6.9-2.8-14-5.1-21-7.7c-0.5-0.3-0.9-0.6-1.4-0.9c-0.6-0.4-1.1-0.7-1.7-1.1 c-2.4-3.1-5.9-4.8-9.2-6.5c-6.5-3.2-12.7-3.1-18.3 2.1c-6.8 4.9-14.8 8.6-19.9 15.5c-3.1 4.1-6.3 6.1-11.1 6.1 c-13.2-0.2-24.5 3.7-34.4 12.8c-6.8 6.2-15.3 6.9-23.8 2.7c-2.3-1.1-4.7-1.5-7.3-1.2c-6.8 0.9-7.8 2.4-5.6 8.8c1.4 4 0 6.4-4.4 6.8 c-2.8 0.3-5.5 0.7-7.1 3c-6 8.4-15.6 10.9-24.2 15c2.2 4.9 3 10.1 3.1 15.5c0.1 11.1 5 17.8 15.4 21.9c6.6 2.6 13.7 2.6 20.3 4.8 c11.1 3.7 21 2.5 30-5.9c5.1-4.8 10.5-4.5 15.8-0.2c5.3 4.3 10.3 8.9 15.5 13.3c4.6 3.9 9.3 7.9 15.4 8.5c5.9 0.6 12 1 17.9-0.5 c16.3-4.2 29.8 0.2 41 12.5c4.8 5.3 9.6 10.6 14.7 15.6c11.1 11.1 16.5 11.1 27.3-0.2c5.5-5.8 11-11.4 19.2-13.6 c2.8-0.7 5.5-2.3 7.8-4.4c7.1-6.7 15.3-11.6 24.7-14.5c5.6-1.7 11.2-4 14.5-9.1c3.4-5.1 8.3-7.2 13.8-8.9 c6.1-1.8 11.7-3.9 12.1-12.4c0.2-4.3 3.6-8.5 8.3-10.9c4.4-2.3 8.6-5.4 9.2-11c0.8-7.4 2-14.9 4.6-21.8 C333.1 45.7 333.4 39.4 332.3 32.4z" class="svg"/></svg>