<svg xmlns="http://www.w3.org/2000/svg" xmlns:xlink="http://www.w3.org/1999/xlink" version="1.1" id="Layer_1" x="0px" y="0px" viewBox="0 0 900 1185.8" enable-background="new 0 0 900 1185.8" xml:space="preserve">
<g>
	<path fill="#92C18A" d="M32.7 493.6c-2-4.4-7.2-6.9-6.8-12.7c0.1-1.2-0.4-3.3-2.6-4.5c0 2.2-0.2 4.1 0 6c0.5 4.7-2 7.2-6.2 7.2 c-3.9 0.1-4.4 2-4.1 5c0.4 3.7-0.4 7.3-3.1 9.6C6.7 506.9 4 510 1 512.8c0 1.3 0 2.7 0 4c4.6 3.3 9.2 6.6 13.5 10.7 c0.4-4.8 1.2-9.1 0.8-13.3c-0.3-3.5 0.6-4.8 3.8-4.6c3 0.2 5.6-0.9 7.7-2.8c4.3-3.9 8.3-8.2 13.9-11.2 C37.6 494 34 496.4 32.7 493.6z"/>
	<path fill="#92C18A" d="M102.3 278.4c1.1-4.3 7.8-4.9 6.6-10.4c-0.2-0.8 0.5-1.4 1.1-2c2.7-2.5 6.6-3.7 7.6-7.9 c0.3-1.4 1.9-0.7 3.1-0.4c2.4 0.6 6.1 0 6.2-1.7c0.4-4.6 3.2-3 5.4-2.9c4.3 0.1 5.3-2.4 4.5-5.8c-0.6-2.9-2-5.7-4.8-7.3 c-2.2-1.3-3.5-3.1-3.1-5.8c0.1-0.8 0.2-2 1.3-1.6c4.3 1.8 9.8 1.8 12.3 6.7c0.8 1.5 1.6 2.9 3.2 3.6c1.5 0.8 3 3 4.7 1.1 c1.4-1.5 0.8-3.7-0.5-5c-3.2-3.3-1.3-8.9-5.5-11.7c-0.8-0.6-0.1-1.6 0.7-2c2.6-1 1.4-2.6 0.6-3.9c-2.5-3.9-5.1-7.8-7.7-11.6 c-4.4-6.5-2.8-15.4 3.8-20.2c0.1 0.1 0.2 0.3 0.4 0.4c-1.3 6.5-3.6 13.1-0.5 19.5c2.2 4.6 5.5 8.7 8.3 13c1.2 1.8 3.1 3.1 5.1 1.9 c1.6-0.9 0.9-3 0.3-4.6c-0.8-2.5-2.5-4.9-1.8-8.4c3.7 3.2 4.6 7.4 6.6 10.9c1.7 2.8 5.8 4 6.8 1.6c1.7-4.2 4.6-4.1 8-3.9 c1.5 0.1 2.6-0.7 3.3-1.9c3.1-4.6 3-9.8 2.4-15c-0.5-4-4.7-2.9-7.1-4.4c-0.2-0.1-0.3-0.5-0.6-0.8c3.9-0.1 7.7 0 11.5 0.5 c4.8 0.6 7.5-3.1 9.8-6.5c2.1-2.9-1.8-3.1-2.7-4.6c5.6-5.2 5.9-9.3 1.7-16.9c-1.1-1.9-1.9-2.5-4.3-1.5c-5.8 2.5-12.3 2.1-18.6 4.2 c0.3-0.9 0.3-1.1 0.4-1.2c3.2-1.3 6.4-2.7 9.6-4c1.9-0.8 4-1.3 4.9-3.2c1.3-2.5 3.2-2.9 5.7-3c4.8-0.2 7.1-4.9 4.3-8.8 c-2.3-3.4-2.5-6.6 0.4-9.3c2.2-2.1 12-2.3 13.4-0.7c0.4 0.5 0.7 1.2 0.7 1.8c0 4.7 2.3 4.3 5.4 2.6c2.6-1.4 5.4-2.7 8-4.1 c1.8-0.9 3.8-2 4.2-4c0.9-4.9 2.9-9.6 2.4-14.7c-0.1-1.2 0.5-2.9-1.2-3.4c-1.4-0.3-2.6 0.6-3.5 1.6c-2.1 2.6-4.7 4.8-5.8 8.1 c-0.6 1.8-1.6 3.4-3.4 4.1c-6.5 2.5-13.1 4.5-21.3 4c6.3-8.9 8-19.6 16.7-26.2c2-1.5 3.4-3.6 4.5-5.9c1.8-3.7 4.7-6.4 7.8-9 c3.7-3.1 3.8-3.9-0.3-6.5c-5.4-3.4-5.9-4.6-3.1-10.3c1-1.9 2.4-3.7 3.2-5.7c2.2-5.6 2.7-11.5 0.2-16.8c-1.8-4-5.4-7.1-8.1-10.7 c-2.4-3.2-4.9-2.8-5.8 0.6c-2.1 8.5-8.9 11.5-15.6 14.8c-10.2 5.1-18.1 13-24.8 21.9c-2.4 3.2-4.8 5.7-8.8 6.7 c-7.3 2-14.1 4.7-20.2 9.4c-3.8 2.9-7.8 5.9-13.4 5.8c-4.1-0.1-5.2 3.6-4.7 7.3c0.3 2.4 1.7 4.3 3.4 6c6.8 6.6 9.8 15.1 11.9 24.2 c-4.3-0.4-5.4-3.6-6.5-6.5c-3.2-7.8-9.4-13.1-14.8-19.2c-0.7-0.8-1.6-1.4-2.6-0.7c-0.8 0.6-0.2 1.5-0.1 2.3 c0.8 3.9 0.5 8.8 2.7 11.5c3.7 4.4 1.1 7.4-0.3 11c-0.5 1.2-1 1.5-2.2 1.2c-3.2-1-6.7-1.2-10-3.5c1.7-0.8 3.1-1.2 3.9-2 c1.6-1.6 2.3-3.7 1.8-5.9c-0.5-2-2.6-2.5-4-2c-3.3 1.2-5.6 0-8.1-2.1c-1.4-1.2-3.2-1.8-5.1-1.9c-2.6-0.1-5.4-0.6-6.8 2.7 c-1.4 3.2-0.9 5.6 1.6 8.1c1.8 1.8 4.3 2.9 5.6 5.6c-4 1.1-7.3 0-10.6-1.1c-3-1-5.3-0.6-4.1 3.3c0.8 2.9-0.1 5.4-1.4 7.6 c-4.6 7.8-2.9 15.3 0.3 22.9c1.7 4 3.5 6.1 7.3 2.1c1.1-1.1 2.6-1.9 4-0.7c1.4 1.3-0.2 2.3-0.9 3.4c-2.2 3.6-1.5 4.9 2.9 5 c3.2 0.1 6.4 0 9.5 0c-5 2-10.5 2.1-14.3 6.5c-0.7 0.8-1.9 0.7-2.5-0.4c-2.7-4.3-7-3-10.9-3.2c-1.1-0.1-2.5-0.2-3 1.2 c-0.5 1.3 0.6 2.2 1.5 2.9c4.3 3.1 7.8 7.3 10.1 11.6c3.1 5.9 7.8 7.5 13.4 9c5.8 1.6 11.6 3 17.2 5.2c4 1.6 5.8 4.2 7.4 9 c-6-2.9-10.5-1.6-14.5 2.1c-2.4 2.2-3.5 4.2 0.5 5.9c1.1 0.5 2.2 1.1 2.1 2.5c-0.1 1.9-1.8 1.7-3 2c-3.6 0.7-6.5 2.6-8.8 5.4 c-2.5 3-5.5 4.2-9.3 2.9c-2.2-0.8-4.3 0.2-6.3 0.9c-3 0.9-2.8 3.2-0.7 4.2c4.2 2 8 3.7 6.3 9.4c-0.1 0.3 0.4 0.9 0.7 1.3 c4.2 4.5 8.4 9 12.6 13.5C99.6 278.6 101.9 279.7 102.3 278.4z M143 188.8C143 188.8 143 188.8 143 188.8 C143 188.8 143 188.8 143 188.8z"/>
	<path fill="#92C18A" d="M80.6 303.2c-2.1-1.4-3.9-2.5-6.8-1.5c-2.9 1-5.2 0.2-4.4-4c0.8-4.2-2.9-7-7-6c-4.6 1.1-7.2 4.6-9.8 8.1 c-2.3 3.1-4.6 3.6-8 1.7c-3.1-1.6 0-4.1-1.3-6.3c-0.6 1-1 1.5-1.3 2.1c-2.9 5.4-6.1 6.5-11.9 4.7c-3.1-1-6.5-1.4-9.7-2 c-1.5-0.2-3.2-0.3-3.1 2c0.2 5.5-2.4 9.4-7.1 12c-2.2 1.2-2.4 3.1-1.7 5.1c2.6 7.4 14.8 12.3 21.6 8.8c0.4-0.2 1-0.4 1.2-0.2 c3.4 3.2 8.7 4.2 10.7 8.7c1.4 3.2 3.7 5.4 5.9 7.9c1.6 1.8 5.8 2.4 4.4 5.7c-1.4 3.3-5.2 2-8.1 2.2c-2.4 0.2-3.2-1.2-3.2-3.4 c0-2 0-4-0.1-6c-0.1-2.8 0.2-6.5-3.6-6.6c-4.4-0.1-3.1 4.3-3.9 6.9c-0.2 0.9 0.3 1.9 0.5 2.9c0.4 2.2 0.3 4.8-1 6.3 c-3.1 3.4-2.1 7.2-1.4 10.8c0.9 4.6 0.6 9.3 0.6 13.9c0 1.3 0.1 3.3-1.2 3.5c-6.1 1-2.5 4.3-1.6 6.7c3 7.8 5.5 15.1 0.9 23.8 c-4 7.6-4.7 17-2.7 25.2c1.9 7.9 4.7 15.5 5.8 23.6c0.5 3.3 1.6 7.2 5.4 7.7c4.6 0.5 5.8 2.9 6.2 6.7c0.1 1.1 0.6 2.3 1.1 3.3 c0.6 1.2 0.6 3.5 2.5 3.2c1.6-0.2 1.6-2.3 2-3.7c1.5-4.5 0.9-8.6-2.4-12.4c1.9-0.8 3.1 0.1 4.3 0.5c2.8 0.9 6.2 2.3 8.1-0.8 c1.8-3-0.7-5.5-2.6-7.9c-2.8-3.5-7.2-3.1-11.2-4.7c8.2-7.1 8.5-13 1.4-20.5c-0.3-0.4-0.8-0.6-1.1-1c-1.3-1.5-1.2-3.2 1-3 c3.8 0.3 5.1-2.4 6.9-4.8c2.6-3.4 4.2-7.6 7.6-10.5c2.6-2.2 3-4.3 0.2-7c-2.3-2.2-5.3-5-3-8.6c1.9-3.1 0.5-4-2-5 c-1.5-0.6-3-1.4-4.4-2.3c-0.7-0.4-2.3-0.9-1-2c4.3-3.7 0.6-4.7-1.9-6.4c-1.2-0.9-3.2-1.1-3.5-3.3c5-0.9 9.5-0.4 13.7 2.8 c1.1 0.9 3.1 3.1 4.4 0.8c1-1.8 0.5-4.2-1.7-5.6c-1.3-0.8-3.2-1-3.8-3.1c2.8-1.8 5.7-3.6 0-5.5c-1.5-0.5-2-1.9-1-3.2 c1.9-2.5 1.7-5.1 0-7.9c3.2 0.6 3.5 0.6 6.3-1.4c0.7-0.5 1.3-0.6 2.2-0.6c5.2 0.3 7.5-2.3 6.8-7.5c-0.2-1.5-0.9-2.9 0-4.4 c2.6-4.4 2.9-9.5 4.5-14.2c1.2-3.4 2.3-5.9-3-5.5c-1.5 0.1-2-1.6-2.6-2.7c-1.2-2.4-3-3.9-5.4-5c-2.1-1-4.2-2-6.3-3.1 c-0.7-0.4-1.5-1.1-1.6-1.7c-0.1-1.3 1.3-1.2 2.2-1.6c1.9-0.9 3.6-0.4 5.2 0.5c2.5 1.4 5 2.7 7.3 4.4c3.3 2.3 6.6 2.3 8.8-0.7 C85.2 308.5 83.9 305.4 80.6 303.2z"/>
	<path fill="#92C18A" d="M233.2 806.3c-0.2-6.5-0.7-7.1-7-4.4c-1.2 0.5-2.3 1.3-3.3 2.2c-8.3 7.5-18.1 13.8-21.4 25.6 c-0.2 0.9-0.9 2.1-2.1 1.7c-1-0.3-1.3-1.4-1.4-2.5c-0.2-1.7 0.5-3.2 1.3-4.7c1.1-2.2 2.3-4.4 3.2-6.7c0.5-1.3 1.3-3.1 0-4.2 c-1.5-1.3-3.2-0.1-4.6 0.6c-4.3 1.9-5.4 8.8-11.8 7.6c-4.1 5.9-8.6 12.2-7.7 19.5c0.9 6.5-0.7 12.1-2.5 17.9 c-1.3 3.9-3.1 7.7-3.6 11.2c-0.3 5 0.6 5.7 4.7 4.2c2.6-1 5.2-2.2 7.9-3.1c4.3-1.5 6.6-4.4 7.6-9c1.2-5.1 2.5-10.3 5.3-15 c3.4-5.5 4.1-5.8 10.2-3.6c2.6 0.9 2.6 2 1 3.9c-2.7 3.2-5.3 6.4-7.7 9.8c-2.1 2.9-2 5.3 1.8 7.2c4.1 2 6.4 5.5 8 9.8 c1.1 2.9 0.6 4.7-1.8 6.3c-2.8 1.9-5 4.4-6.9 7.2c-2.6 3.7-1.1 7.5 0.9 10.7c1.9 3 5.2 2.1 8.1 1c5-2 8.1-5.7 9.6-10.8 c0.8-2.9 2.2-4.1 5.4-3.1c3.2 1 6.2 0.1 8.9-1.9c2.7-2 5.5-3.8 8.3-5.6c2.4-1.5 3.2-3.4 3.2-6.2c-0.1-9.5-2.2-18.5-6.1-27.1 C235.3 832.5 233.5 819.5 233.2 806.3z"/>
	<path fill="#92C18A" d="M207.1 480.2c-1.2-2.6-3.4-1.2-5.2-0.6c-5.1 1.4-9.1 4.6-13.3 7.6c-5.9 4.2-6.1 6.5-0.4 11.2 c3.5 2.9 7.4 5.2 9.3 9.9c0.9 2.2 3.7 3.7 7.2 3.5c0.9-0.1 2.8 0.4 3.6-1.1c2.1-4.1 5.6-7.4 6.7-12.1c0.7-2.8 1.8-5.6-1.9-7.2 c-1.1-0.5-1.2-1.6-0.6-2.5C216.8 482.1 208.5 483.3 207.1 480.2z"/>
	<path fill="#92C18A" d="M134.2 625c-4.1 2.5-9.1 0.9-13 4.1c-2.3 1.9-5.9 4.6-8.5 2.9c-6.2-4.1-9.9 0.3-14.2 3.1 c-2.6 1.7-3.1 4.2-1.4 6.9c2.1 3.4 4 6.9 6.2 10.2c1.8 2.7 4.8 1.5 7.4 1.7c2.1 0.1 3.3-1.6 3.1-3.2c-0.4-3.9 2.5-6.6 2.7-10.3 c7.3 4.4 8.9 3.6 10.3-4.8c0.3-2 1.2-2.5 2.9-2.5c1.7-0.1 3.3 0 5-0.2c2.3-0.2 4.5-0.7 4.2-3.7C138.7 626 135.7 624.1 134.2 625z"/>
	<path fill="#92C18A" d="M180.9 591.7c0.4-4.6-1.9-6.3-5.5-5c-2.8 1-5 2.7-6.6 5.1c-6.4 9.4-16.9 13.9-24.9 21.5 c-1.7 1.6-3.6 2.6-2.5 5.1c1.3 2.8 3.4 2.3 5.8 1c3.3-1.9 6.6-4.4 10.7-3.2c2.4 0.7 3.8-0.2 5.2-1.7c5.3-6 10.6-11.9 15.7-18 C179.9 594.8 180.4 592.8 180.9 591.7z"/>
	<path fill="#92C18A" d="M236.1 529.3c2.6-4 2.1-12-1.1-15.5c-1-1.1-2-2.4-3.6-0.7c-2.9 3-4 7.8-9 8.7c-0.3 0.1-0.4 1.5-0.5 2.3 c-0.2 5 2 6.9 8.1 6.9C231.9 530.5 234.5 531.8 236.1 529.3z"/>
	<path fill="#92C18A" d="M155.9 486.8c2.2-0.6 4.4-1.6 6.6-2c3.8-0.8 7.4-1.9 10-5c1.3-1.5 4-3.3 1.5-5.2c-1.8-1.5-5.2-0.6-6.1 1.5 c-2 5.3-5.4 5.5-9 4c-3-0.2-4.9-0.1-6.4 1.7c-1.3 1.5-2.2 3.2-1.2 5C152.7 488.7 154.4 487.2 155.9 486.8z"/>
	<path fill="#92C18A" d="M652 794.6c0.3 0.1 0.6 0.2 1 0.3C652.8 794.3 652.5 794.1 652 794.6z"/>
	<path fill="#92C18A" d="M894 337.9c-0.4-2.7 0.5-5.7-1.7-8.1c-2.3-2.5-5.3-0.2-8.9-0.6c2.9-2.6 1-4.1-0.2-6c-5-8-12.3-12.7-21-15.8 c-7.5-2.7-14.7-1.7-21.3 2.5c-2.9 1.8-5.9 3-9.2 3.1c-1.4-0.9-2.8-1.8-4.1-2.8c-6.4-4.7-9.6-4.8-16.2-0.6c-2 1.2-4 2.3-6.3 2.7 c-11 1.9-21.7 0.7-32.1-3.3c-5.8-2.2-11.8-3.7-18-2.9c-5.9 0.8-11.6-0.1-17.2-1.5c-7-1.7-13.8-1.5-20.4 1.9 c-3.2 1.7-6.5 3.3-9.9 4.6c-4.8 1.9-9.6 3.3-14.9 1.1c-6.9-2.8-14-5.1-21-7.7c-0.5-0.3-0.9-0.6-1.4-0.9c-0.6-0.4-1.1-0.7-1.7-1.1 c-2.4-3.1-5.9-4.8-9.2-6.5c-6.5-3.2-12.7-3.1-18.3 2.1c-6.8 4.9-14.8 8.6-19.9 15.5c-3.1 4.1-6.3 6.1-11.1 6.1 c-13.2-0.2-24.5 3.7-34.4 12.8c-6.8 6.2-15.3 6.9-23.8 2.7c-2.3-1.1-4.7-1.5-7.3-1.2c-6.8 0.9-7.8 2.4-5.6 8.8c1.4 4 0 6.4-4.4 6.8 c-2.8 0.3-5.5 0.7-7.1 3c-6 8.4-15.6 10.9-24.2 15c-3.7 0.7-7.5 1.4-11.2 2c-1.6 0.2-3.7 0-4.3-1.7c-0.9-2.2 1.8-1.8 2.7-2.7 c1.5-1.4 3.6-1.8 5.5-2.3c5.2-1.2 9.1-3.9 11.4-8.8c1.6-3.4 4-5.2 8-3.6c1.5 0.6 3.6 0.8 4.5-0.9c1.8-3.5 5.3-4.9 8.1-7.2 c1.5-1.3 3.7-2.3 3.5-4.6c-0.4-4.3 2.3-7.1 4.5-10.2c3-4.2 6.9-7.7 10.5-11.4c1.6-1.7 3-3.1 0.7-5.4c-2.1-2.2-3.9-2.1-6-0.4 c-1.9 1.6-3.8 3.3-5.9 4.6c-4.1 2.7-8.1 3.8-13 0.8c-3.7-2.3-8.4-2.7-12.1 0.6c-7.8 6.9-15.4 14.2-23.2 21.2 c-1.5 1.4-3.1 4.6-4.9 3.2c-2.2-1.7 0.2-4.6 1-6.9c0.3-0.9 1.2-1.6 2-2.2c7.6-5.4 13.1-12.8 18.3-20.2c3.2-4.5 6.6-6.2 11.7-4.1 c4.1 1.7 7.7 1.1 10.8-2.3c1.9-2.1 4.3-3.7 6.2-5.7c2-2.1 4.4-3.7 7.1-4.4c2.1-0.5 4.5-1 6.2 0.6c1.9 1.7-0.7 3.2-1 4.9 c-0.2 1-0.6 1.9-0.8 2.9c-0.8 2.9 0 4.3 3.3 4.4c5.2 0.3 10.4-2.8 12.4-9.5c2.3-7.5 7-13.1 11.6-18.8c5.1-6.3 9.8-12.9 13.6-20.2 c0.7-1.3 1.6-3 0.1-4.1c-1.5-1.1-3.5-0.8-5.2 0.1c-1.4 0.7-2.2 2.1-2.6 3.5c-3 9.2-10.6 11.3-19.5 12.7c0.5-2.2 5-3.7 1.5-5.8 c-4.8-2.8-6.5-8.3-11-11.3c-3-2-3.6-4.9-0.7-8c3.8-4.1 3.1-7-1.8-9.8c-1.4-0.8-2.8-1.7-4.3-2.6c-1.1-0.6-1.8-1.5-1.5-2.9 c0.2-1 0.9-1.6 1.8-1.2c1.3 0.5 3.1 0.1 3.9 1.7c0.4 0.9-1.5 2.9 1.1 2.8c1.8-0.1 3-1.1 3.3-3.1c0.5-3.5 2.9-5.3 5.7-7.1 c8.7-5.5 18.1-10.1 22.7-20.2c1.2-2.7 3.9-4.5 6.3-6.3c12.8-9.5 26.1-18.4 37.8-29.3c5.6-5.3 10.6-10.6 14-17.8 c4.8-10.1 11.6-18.8 23.1-21.7c9.9-2.5 17.9-7.3 24.7-15.1c10.1-11.5 12.5-25.7 15.5-39.8c0.5-2.4-0.4-3.9-3.4-2.8 c-3 1.1-6.2 1.4-7.7-2.2c-1.7-3.9-2.8-9.2 0.1-11.8c9-8.1 7-20.5 12.9-29.6c0.2-0.4 0.1-1 0.1-1.5c0.8-5.8-0.6-7.2-6.5-6.1 c-4 0.7-8.7 2.1-11.7 0c-5.9-4-11.5-2.6-17.6-1.7c-4.7 0.8-10.1 2.9-14.1-2.5c-1-1.4-3.2-1.3-4.5 0.1c-1.5 1.7 0.7 2.6 1.4 3.6 c2.6 3.7 3 7.9 1.5 11.8c-1.4 3.8-5.5 3.2-8.7 3.3c-6.8 0.1-13.7 1-19.8-3.3c-0.7-0.5-2-0.8-2.8-0.5c-4.6 1.3-9.3 0.9-13.9 0.7 c-7.7-0.3-12.6 3.4-16.2 9.6c-0.5 0.8-0.6 2.6-1.6 2.3c-5.3-1.7-10.3 2.6-15.6 0.8c-2.1-0.7-4.3-0.3-6.4-0.3 c-5.4 0-10.9-0.1-16.3-0.4c-2.3-0.1-2.3-2-2.4-3.7c-0.1-1.1 0.4-2.6-1.1-3c-1.6-0.4-2.9 0.5-3.8 1.8c-0.6 0.8-1 1.7-1.4 2.6 c-1.7 3.2-3.3 5.6-7.7 3c-2.7-1.6-5.9-0.9-7.1 2.8c-1.1 3.6-3.5 5-6.1 2.5c-3.7-3.5-4.9-1.9-6 1.8c-1.5 4.8-4.9 5.6-8.1 2 c-1.2-1.3-2.7-2-4.4-1.9c-5.6 0.4-10.8 1.8-13.9 7.2c-1.4 2.4-2.8 4.9-4.3 7.3c-2.6 4.2-5.3 8.4-7.9 12.6c-0.6-0.3-1.1-0.7-1.7-1 c4.9-7 5.3-16.1 12-22.1c1.2-1.1 3.9-2.7 1.6-4.2c-2.5-1.6-5.3-4.1-8.6-3.3c-2.4 0.6-3.7-0.3-4.6-1.8c-2.5-4.8-7.1-5-11.5-5.3 c-6.5-0.6-10.6 4.5-8.4 10.7c1.7 4.7-0.3 6.6-4.5 7.1c-1.9 0.2-3.9 0.6-4.4 2.7c-1.4 7.3-7.4 11.5-11.4 17c-0.7 1-1.7 2.1-3.7 1.9 c-0.5-3.3 1.2-6 2.8-8.6c3.9-6.1 7.8-12.2 11.6-18.4c0.7-1.1 2.3-2.4 0.2-3.7c-2.7-1.6-5.3-4.1-8.2-4.5c-4.1-0.6-4.7-2.7-4.7-6.1 c0-4.6-2.7-7.4-6.7-9.8c0.2 3.3-0.9 6.1 1.3 8.6c0.9 1 0.8 2.3-0.7 2.7c-3.8 1.2-2 3.4-1.1 5.5c3.3 7 2.2 10-4.9 13.2 c-0.1-0.1-0.3-0.3-0.3-0.4c0.1-0.6 0.1-1.4 0.4-1.9c2.4-4.6 3.4-8.6 1.5-14.3c-2.2-6.7-9.6-13.5-17.1-12.2c-4 0.7-7.9 1.1-11.2-2.3 c-2.2-2.2-3.7-1.3-4.9 1.2c-0.8 1.7-1.1 3.5-1 5.3c0.2 8.9-2 16.4-11.3 20.2c-5 2-3.9 6.7-3.9 10.8c0 3.6 1.1 6.5 4.7 8 c4.8 2 9.2 4.7 13.5 7.6c1.3 0.9 3.6 1.8 2.5 3.6c-1.4 2.2-2.9-0.1-4.1-0.9c-3.8-2.6-7.5-4.9-12.4-4.1c-1.8 0.3-3.8 0.6-4.7 2.4 c-0.9 1.9 0.4 3.6 1.6 4.9c3.1 3 6.4 5.8 9.5 8.8c0.9 0.8 2.7 1.7 1.8 3.1c-1 1.6-2.7 0.5-4-0.1c-4-1.8-7.7-4-10.8-7.1 c-0.7-0.7-1.6-1.3-2.7-0.8c-0.7 0.3-0.8 1.1-0.4 1.7c2.1 2.9 0.3 4.5-1.5 6.8c-2.1 2.7-3 6.3-2.3 9.9c2.3 11.3 10.5 18.5 18 26.2 c1.2 1.2 3 1.1 4.7 0.5c2.8-1 5.1 0.7 7.5 1.8c1.1 0.5 1.1 1.5 0.8 2.6c-0.2 0.8-0.8 1-1.5 0.8c-6.5-1.2-13.8 0.8-19.4-4.6 c-1.8-1.7-3.6-0.8-5.2 0.7c-3.6 3.4-7.6 3.7-11.8 1.2c-1.7-1-3.6-1.8-5.3-2.9c-1.2-0.7-2.3-1.6-3.5-0.1c-1.1 1.4-1.8 3-0.1 4.4 c1.2 1.1 2.7 2.2 0.4 3.2c-1.9 0.9-4.1 3.8-6 1.1c-2-2.8-4.1-4.1-7.4-3.8c-1.1 0.1-1.8-0.7-2-1.8c-0.2-1.2-0.6-2.3-2.2-2.1 c-1.8 0.3-1.6 1.7-1.9 3c-0.8 4.2 1.1 7.2 3.6 10.3c5.6 6.9 9.3 15.3 17.3 20.7c-4.8 3.2-5.2 7.3-3.4 12.5c1.7 4.8-3.1 12-7 11 c-4.8-1.2-9.6-2.8-12.2-7.8c-1.1-2-2.3-5.4-5.4-2.6c-2.3 2.1-7 3.8-2.9 8.5c4.6 5.3 6 13.4 14.3 15.4c1.2 0.3 1.9 2.2 2.9 3.3 c6.1 7.2 10.1 16.2 17.8 22c6.8 5.1 12.1 11.8 18.5 17.3c4 3.5 4.5 7.8 4.9 12.5c-1.4-3.5-2.7-7.1-6-9.4 c-6.7-4.5-12.3-10.2-17.8-16c-1.5-1.6-2.8-2.3-4.2 0.2c-1.9 3.5-3.8 2.9-6.6 0.4c-3.4-2.9-7.6-4.9-12.2-2c-1.6 1-3.6 3.2-1.1 4 c7.3 2.3 12.5 6.8 16.9 12.7c0.5 0.6 1.9 0.6 2.8 0.9c3.7 1.4 6 4 7.1 7.9c-9.5-5.1-19.4-9.3-27.4-16.6c-3.1-2.9-4.9-2.9-6.6 1 c-0.5 1.1-1 2.1-1.5 3.2c-3.8 9.3-3.7 9.2-12.5 4.7c-3-1.5-4.8-2.9-3.7-6.9c1-3.6-5.3-9.6-8.8-9.1c-6.5 1-6.5 6.6-8 11.2 c-1.3 4 1.2 5.3 3.8 7c4.3 2.8 8.4 14.1 6.7 18.9c-0.4 1-0.1 3.1-2.4 2c-0.8-0.4-1.6-1.8-2.5-0.6c-0.9 1.2-0.3 2.5 0.5 3.7 c0.8 1.3 2 3.1 0.4 3.9c-1.7 0.9-3-0.7-3.8-2.3c-0.5-1-1-2.1-1.4-3.2c-1.5-5.4-0.3-11.6-4.7-16.3c-0.7-0.7-0.4-2.6 0-3.8 c1.2-4.1-1.1-4.9-4.2-4.5c-3.6 0.5-7.1 1.5-10.7 2.2c-7.3 1.5-8.7 6.2-6.3 12.3c2 5.1 1.5 9.6 0.3 14.5c-1.4 5.6 0.6 9.3 5.9 10.9 c2.4 0.7 5 1.3 7.4 1c5.4-0.6 5.5 3.8 6.9 6.9c0.6 1.3 0.9 3.2-0.9 3.9c-3.5 1.3-5-1.7-7.1-3.5c-0.2-0.2-0.5-0.5-0.7-0.7 c-2.9-2.8-5.1-1.9-6.5 1.5c-2 5.1-3.8 10.3-5.8 15.4c-0.8 2.2-0.5 2.9 1.9 3.9c5.4 2.1 9.3 5.7 9.7 12c0.3 3.8 1.1 7.4 5.9 7.8 c0.9 0.1 1.7 0.6 1.6 1.5c-0.2 5.7 4 5.3 7.6 5.4c4 0.1 7.9 0.1 12-0.5c2.4-0.3 6.2 0.2 6.3 3.3c0.1 3.6-3.5 1.9-5.5 2.1 c-4.3 0.4-8.7-1-12.8 0.9c-5.5 2.5-5.5 2.6-8.1-3.3c-0.5-1.3-1.2-4.1-2.4-3.1c-4.4 3.7-5-1-6.6-2.7c-2.2-2.2-4.8-3.5-7.5-4.9 c-2.4-1.3-3.6-0.7-5.1 1.7c-2.2 3.6-5 6.6-3 11.2c0.2 0.6-0.2 1.8-0.7 2.3c-5.2 4.6-3.2 10.6-2.7 16c0.4 4.3 1 9.6 7.4 10.3 c1.6 0.2 1.1 1.8 0.5 2.8c-1.2 2-2.7 3.8-3.8 5.9c-1.8 3.2-3.6 6.5-0.5 10c0 1.7-1.2 2.7-2 3.9c-3.6 4.9-3.8 4.9-8 0.5 c-2-2-4.1-3.9-6-6c-2.8-3.1-5.6-6.9-5-11.1c1.2-7.6-2.8-11.9-8.2-15.6c-2.4-1.6-2.3-2.5 0-4.4c4-3.2 6.7-15.7 3.6-18.9 c-3.1-3.2-2.3-6.1-1.6-9.6c1.4-7.7 4.3-15.1 4.3-23c0-5.6-0.7-6.3-6.1-4.9c-2.9 0.7-4.7 0.4-6.2-2.3c-0.8-1.4-2.3-2.4-3.3-3.7 c-5.3-6.4-10.6-12.8-15.9-19.2c-2.2-2.7-4-2-5.2 0.7c-0.7 1.6-1.3 3.5-1.3 5.3c0 3.7-1.3 6.9-3.8 9.5c-3.8 3.8-3.9 7.2-0.1 11.1 c1.7 1.8 2.9 4 4.3 6.1c1.6 2.4 1.9 4.9 0.7 7.6c-3.4 7.5-3.1 14.5 2.6 20.9c0.2 0.2 0 0.8 0 2.3c-4.7-5.2-9.6-6.3-15.1-2.9 c-0.9 0.5-1.8 0.6-2.6-0.4c-3.7-4.6-8.9-7.5-13.2-11.3c-1.9-1.6-3.6-3.7-2.6-6c2.8-6.9-2.1-9.2-6.6-11.8c-3.8-2.2-5.2-1.4-5.3 2.9 c-0.2 8.3 2.4 15.3 9.1 20.7c1.9 1.5 5.2 3 4 5.6c-1.1 2.4-4.1 0.4-6.3 0.1c-2.6-0.4-4.6 0.7-6.2 2.5c-1.9 2.2 0.3 3.7 1.3 5.2 c1.5 2.4 3.3 4.6 4.9 6.9c0.8 1.2 2.1 2.7 0.2 3.8c-1.6 1-2.8-0.2-3.7-1.6c-1.3-2.1-2.8-4.2-4-6.3c-2.8-5.2-6.9-9-11.8-11.9 c-3.1-1.8-4.8-1.4-4.9 2.8c-0.2 5.9 1 12.2-3.8 17.2c-0.6 0.6-0.7 1.9-0.8 2.8c-0.2 1.7-0.2 3.6 2 3.9c6.2 0.8 7.2 5 6.9 10.1 c-0.4 4.9 1.7 7.7 6.8 8.6c4.5 0.8 9.4 0.1 13.4 3.1c3.3 2.5 4.3 0.6 4.7-2.5c0.1-0.8 0.1-1.7 0.2-2.5c0.6-5.6 2.6-7.3 8.1-6.6 c1.7 0.2 2.5-0.4 2.8-1.9c2.7 1.2 2.7 4 3.7 6.2c2.3 4.9 3.5 10.8 11.1 9.2c0.7-0.1 1.8 0.8 2.5 1.5c3.4 2.9 6.7 5.8 10.1 8.8 c-2.5 0.7-4.2 0-6-1.7c-5-5-9.6-5.1-16.2-2.4c-3.5 1.5-3.2 3.2-2.1 5.7c2.4 5.1 4.9 10.2 7.9 15c1.6 2.6 4.3 3.9 6.8 3.4 c6.4-1.5 5.1 1.6 3.7 5.3c-0.8 2-2.9 4.2-0.6 6.4c2 1.9 4.8 2.5 7.5 1.4c3.2-1.3 4.2 0 3.2 2.9c-1.6 4.8 1.1 6.1 4.8 5.3 c5.9-1.4 12-2.6 17.2-6.2c1.2-0.9 2.3-2.2 4-1.4c1.6 0.8 1.4 2.5 1.4 4c0.1 4.7 0.7 9.3 2.9 13.5c1.2 2.2 3 3.6 5 1.1 c5.6-7 10.1-14.6 7.9-24.2c-0.3-1.4-1.2-2.8-0.2-4.7c3.9 2.3 8.1 4.7 7.1 10.1c-1 5.1 1.6 5 5.1 5c4.8 0 8.9-3.1 13.7-3.6 c0 1.8-1.2 2.3-2.1 2.9c-8.1 6.3-16.6 12.2-23.9 19.6c-1.4 1.4-3.5 2.8-2.2 5c2.1 3.7 1.6 7.3 0.2 11c-1.1 3 0.9 5.2 2.9 6.9 c2.3 2 3.5-0.6 5-1.6c9-5.9 15.6-15 25.5-19.7c2.8 4.1 7 2 10.6 2.3c2.8 0.3 4.6 0.5 6.1 3.6c2.8 5.9 7.3 7.4 13.7 6.6 c5.3-0.7 10.8 0.6 16.3-1.6c-0.3 3.3-2.1 3.3-3.7 3.5c-3.9 0.5-9.4-0.5-11.5 1.7c-5.4 5.5-8.2 2.4-11.8-1.3c-1.2-1.3-3-2.1-4.6-3 c-4.5-2.5-8.9-5-14.4-1.9c-9.2 5.2-15.6 12.7-19.9 22.1c-1.2 2.6 0.8 2.5 2.2 2.3c7.9-0.8 13.2 3.1 17.3 9.4 c1.8 2.7 4.5 3.7 7.7 3.8c5.3 0.2 10.4-0.5 15.6-1.6c-2.9 3.4-7.3 2.5-10.8 3.9c-6.9 2.8-13.5 0.1-17.3-4.3 c-4.9-5.6-10.2-5.3-16.1-5.3c-3.2 0-6.8 4.1-6.5 7.5c0.3 3.6 2.3 6.5 6.2 6.6c5.9 0.1 11.6 0.2 17.1 2.8c1.3 0.6 3.3 0.1 4.9 0 c8-0.5 16 1.1 24.1 0.6c-1.5 2-3.6 2.4-5.7 2.6c-11.7 1.2-23.5 2.2-35.2-0.9c-9-2.4-9-2.2-13 6c-1.2 2.4-2.4 4.5 1.5 5.6 c0.8 0.2 2 1 1.5 2.2c-0.6 1.3-1.9 1.1-3.1 0.7c-0.6-0.2-1.2-0.6-1.8-0.8c-1.2-0.5-2.3-2.7-3.6-0.3c-1.1 1.9-4 3.2-2.4 6 c1 1.8 2.9 3 5 2.4c3.5-1 6.9-2.3 10-4.3c2.1-1.4 4.3-1.9 6.6-1.1c2.7 0.9 5.3 1.8 2.2 5.4c-2.2 2.6-1.3 4.5 2 5.3 c0.9 0.2 2.1-0.2 2.2 1.5c-4.1 2.8-9.2 2.6-13.6 4.4c-3.2 1.3-8.5 8.5-7.9 11.3c1.1 4.7 5.3 1.8 7.9 3c0.2 0.1 0.3 0.5 0.4 0.8 c-0.5 1.2-1.6 1-2.5 1c-2.7 0.2-7-1.5-7.9 0.7c-1.2 3 3.1 3.8 5.3 5.4c1 0.7 1.8 2 1.3 3c-0.9 1.6-2.2 0.5-3.5 0.1 c-4.1-1.4-7.6-3.8-10.7-6.7c-1.5-1.4-2.8-1.8-4.9-0.9c-5.9 2.4-12.1 3.4-18.5 3.4c-7.3-0.1-13.6 2.9-18.6 8.1 c-3.1 3.2-3.6 7.4-1.4 11.1c2.3 3.7 7.8 4.6 10.2 3.1c5.8-3.8 10.7-1.8 16.1-0.3c0 0 0 0 0 0c-0.7 0.7-1.4 1.4-2 2.2 c-4.2 5.3-8.6 10.1-16.5 7.9c-1.5-0.4-3 0.9-3.3 2.5c-0.4 1.8 1.1 2.8 2.4 3.4c4 1.6 3.1 3.4 0.5 5.5c-0.9 0.7-1.6 1.7-2.5 2.4 c-2.5 1.8-1.8 3.3-0.2 5.4c3 3.8 7.2 3.1 11.1 2.9c8.4-0.4 14.2 3.1 18 11.2c-6.4-1.2-12.6-1.2-18.1-4.5c-1.9-1.1-3.7-0.7-5 0.8 c-1.7 1.9 0.5 3 1.5 4c3.4 3.7 17.3 6 22 3.8c7.8-3.7 16.4-4.4 24.5-7c-6.6 4.8-12.4 10.6-20.9 11.9c-2.3 0.3-5 0.8-4.5 4.1 c0.7 4.8-2 7.4-5.8 9.4c-2.2 1.2-3.7 2.7-3.5 5.5c0.3 2.8-0.1 6.2 3 7.4c4.2 1.6 8.7 2.5 13 0c4-2.3 8-4.7 12-7.1 c1.1-0.6 2.5-0.9 3.2 0.2c1 1.5-0.8 1.8-1.5 2.5c-2.6 2.8-5.5 5.2-9.3 6.4c-5.2 1.7-10.4 3.5-15.6 5.2c-5 1.6-10.2 0-14.8-0.7 c-4.7-0.7-9.4-1.3-14.1-1.1c-3.4 0.2-4.3 3.4-5.4 5.9c-1.1 2.5 1.6 3.3 2.9 4.6c2 2 4.5 3.2 5.2 6.8c0.8 4.1 11.6 6.4 13.4 2.9 c2.5-4.8 6.6-5.2 10.8-5.3c12.6-0.3 24.9-1 35.5-9c3.1-2.4 7.5-2.7 10.4-5.7c1.2-1.3 2.4-4.3 4.5-2.7c2.5 1.9-0.2 3.7-1.4 5.3 c-0.3 0.4-0.7 0.8-0.9 1.2c-1.6 2.2-2.1 3.7 1.7 4c8.9 0.7 16.8-1.2 22.8-8.3c0 1.6-0.5 3.4 1.5 4.4c2.1 1 3.6-0.1 4.9-1.3 c2.7-2.5 5.3-5.1 7.9-7.6c0.5 1.1 0.5 2 0.1 2.3c-6.1 5-5.9 14.5-13.3 18.6c-0.6 0.3-1 1.4-1.1 2.1c-0.3 2.7-1.6 3.5-4.3 3.7 c-4.1 0.2-6.3 3.9-5.5 6.8c1.7 6.4-1.6 11.5-2.8 17.1c-1 4.5 0.4 8.4 2.3 11.8c1.6 2.9 3.5-0.2 5-1.4c0.2-0.1 0.7 0 1 0.1 c3.3 1.3 3.1-0.9 3.2-3c0.1-2.4-0.7-4.6-2-6.6c-3.2-5-2.8-9.9 0-14.8c0 0.8 0 1.6 0 2.3c-0.1 5.9 0.7 6.5 6.6 5.2 c2.3-0.5 4.4-1.8 7.7-0.9c-4.3 3.1-7 6.6-7.3 11.3c-0.1 2-0.6 3.9-1.3 5.7c-8.4 8.4-17.5 15.9-26.8 23.1 c-7 5.5-14.9 10.3-18.8 18.9c-2.3 5-0.7 8 4.6 9.1c1.9 0.4 4-0.4 5.8 0.9c-0.6 2-2.5 2.1-3.8 2.9c-4.5 2.5-9.1 4.9-13.6 7.3 c-2.5 1.3-4.1 3.4-4.8 6.1c-1.2 4.5-2.5 9-3.3 13.6c-2.6 15.6 2.5 17.6 14.8 19.2c7 0.9 9.3-1 8.9-8.2c-0.4-7.8 2.3-13.9 8.1-18.9 c3.3-2.9 5.8-6.5 6.2-11.1c0.9-10.4 5-19.2 12.3-26.5c0.6 0 1.2 0 1.8-0.1c0.2-0.2 0.4-0.3 0.5-0.5c-0.2 0.2-0.3 0.4-0.5 0.5 c0 6.9-3.9 12.3-7.4 17.7c-3.8 5.9-5 12.3-5.9 19.1c7.3-6 12.6-13.4 15.2-22.5c0.4-1.5 0.2-4 2.5-3.6c1.9 0.3 1.7 2.6 1.6 4.3 c-0.1 1.1-0.4 2.3-0.9 3.3c-3.4 6.5-7.1 12.9-11.8 18.5c-3.3 3.9-3.5 8-3.4 12.6c0 1 0 2.1 1.2 2.5c1.2 0.3 1.8-0.5 2.4-1.4 c0.7-1.1 1.4-2.2 2.2-3.3c3.7-5 6.7-6.9 11.2-7c-0.7 1-1.3 1.7-1.8 2.5c-6.9 9.6-13.7 19.3-11.1 32.3c0.4 2 0.1 4.3 3 4.3 c3.6 0 4.1 1.7 3.4 4.8c-0.3 1.3 0.1 3.4 1 4.2c1.3 1.1 2.6-0.5 3.7-1.4c5.9-4.6 12.7-8 18.2-15c-0.6 5.8-2.9 8.9-6.4 11.5 c-10.9 8.2-22.6 15.9-23.3 31.6c0 0.3-0.2 0.6-0.4 0.9c-7.5 11.7-6.9 25-7.3 38.1c-1.8 4-1.4 8.4-0.3 12.2 c2.3 7.8-0.7 12.3-7.3 15.7c-4 2.1-6 5.8-6.1 10.2c-0.3 6.5-0.4 13-0.4 19.4c0 3.9 0.3 7.9 4.8 9.5c4.5 1.7 9.3 2.5 13.2-1.1 c3.7-3.3 7.7-4.7 12.6-4.7c6.4 0 11.7-2.8 14.4-9c2.6-5.9 1.9-11.6-2-16.9c-5.6-7.8-5.4-7.7 0-16.2c3.8-5.9 7.2-12.2 3.6-19.5 c1.3-2.5 0.6-5.2 0.5-7.9c-0.1-2.9 0.7-4.6 3.8-4.4c3 0.2 3.5-1 2.3-3.5c-2.8-5.9-1.8-11.9-0.8-18.1c2.3-14.2 6.9-26.8 21.8-32.5 c1.9-0.7 1.9-2.5 2-4.2c0.6-7.4-2.7-13.2-7.2-18.5c-3.9-4.6-6.5-9.6-6.8-15.7c-0.1-3.3-0.2-6.7-1-9.9c-1.5-5.7-4.6-11-4.1-17.3 c0.4-4.5 1.6-5.6 5.8-3.9c3.2 1.3 13.7-3.9 12.8-6.7c-1.6-5.5 2.5-8.1 4.4-11.9c5.4-10.6 13.2-18.6 24.1-23.5 c2.5-1.1 4.6-2.6 5-5.7c1.2-10.4 5.1-12.6 16.9-15.7c-0.5 1.4-1.8 1.8-3 2.4c-6.3 3.3-11.4 7.5-11.1 15.6c0.1 2.1-1.4 3.3-2.9 4.4 c-3.2 2.5-6.7 4.2-10.5 5.5c-1.8 0.6-3.5 1.2-4.4 3c-1.8 3.6-4.7 6.4-6.9 9.7c-2.8 4.1-5.9 8.3-6.8 13.2c-1 5.4-3.4 10.1-6.4 14.4 c-1.8 2.6-2.5 5.2-1.9 7.9c0.8 3.5 0.7 6.9 0 10.3c-1.3 5.9 3.2 9.7 4.9 14.6c3.1 8.7 10.7 10.9 17.9 15.6 c-0.2-5.7-1.4-9.9-4.1-13.6c-1.8-2.4-2.7-5.5-1.2-7.9c1.8-2.9 2.5-6.1 3.8-9.1c0.5-1.1 0.5-2.9 2.7-3c-0.3 1.1-0.5 2.1-0.9 3 c-4.1 8.2-2.5 15.3 4.1 21.5c4.5 4.3 6.9 9.3 5.8 15.7c-0.4 2.1 1.1 3.1 2.6 4.4c2.9 2.6 7.1 3.9 8.6 8.1 c-10.4-4.8-15-3.9-23.1 4.7c-0.9 1-1.7 2.1-2.7 3c-3.7 3.6-4.1 7.5-2.2 12.3c3.5 8.6 7.7 17 7.8 26.6c0.1 6.4 2.3 12.4 5.1 18.1 c4.7 9.3 10.8 12 20.8 9.5c0.6-0.2 1.3-0.4 1.9-0.5c6.4-0.5 9.6-5.4 13.5-9.5c1.3-1.4 0.5-2.9-0.7-3.9c-1.2-1.1-2.6-2-4-2.9 c-2.8-1.9-3.3-3.7-0.7-6.4c4.4-4.5 4.1-8-1.7-10.9c-3.9-2-3.4-3.8-1.1-5.8c3.7-3.2 3.2-6.6 1.5-10.4c-2.5-5.8-5.1-11.5-7.7-17.3 c0.5-2.8-2-6.7 2.9-8.1c0.4-0.1 0.4-1.8 0.4-2.8c0-3 0.1-6-0.1-9c-0.3-5.6-1.3-10.6-6.9-13.9c-3.5-2.1-6.1-6.9-5.5-10.5 c0.8-5-0.5-9.1-1.9-13.5c-0.9-2.8-2.4-5.4-2.5-8.5c1.7 0.2 1.7 1.6 2.3 2.5c4.3 6.6 5.2 14.3 7.4 21.6c0.9 2.8 2.1 4.7 5.2 5.3 c5.8 1.1 8.6-0.3 10.9-6.5c2.4-6.7 4.6-13.5 6.8-20.3c2.5-7.3 6.5-14.3 3.4-22.6c0.9 0.4 1.5 0.8 1.7 1.3c1.9 3.6 2.1 7.7 3.1 11.5 c0.7 2.7 2.9 3.4 5.4 3.6c2.4 0.2 4.8-0.5 6.2-2.6c1.5-2.2-0.6-3.6-1.7-5.2c-0.9-1.3-1.7-2.6-2.5-3.9c5.5 2.1 9 6.2 12.4 10.4 c2.5 3.1 5.4 5.4 9.3 6.1c1.4 2 1 4-0.5 5.4c-1.5 1.5-3.4 0.6-5.2-0.1c-5.1-2.1-10.1-4.3-15.2-6.3c-6-2.4-8.7-0.9-9.9 5.4 c-0.5 2.4-0.8 5.5-3.1 5.8c-5.9 1-4.2 4.7-4 8.4c0.6 11 0.8 22 4.8 32.4c1.4 3.7 0.6 6.5-2.3 9.4c-4.1 4.1-5 14-1.4 15.9 c4 2.1 5.1 5.2 6 9.1c1.5 7.4 10.1 12.4 17.9 12.1c3.1-0.1 7.9-1.7 9.9 3.3c3.6 9.1 4.1 19.1 8 28.1c1.3 2.9 2.2 5.9 2.3 9.1 c0.1 3.6-0.7 6.3-5 6.4c-1.9 0.1-3.5 1-4.8 2.4c-3.2 3.4-6.9 5.7-11.6 6.1c-2.1 0.2-2.6 1.1-2.1 3.4c1.5 6.8-1.1 12.5-6.7 15.9 c-4.6 2.8-5.8 6.2-6.1 11c-0.5 8.8-0.5 17.8-6.3 25.3c-4.9 6.3-10 12.4-15.2 18.5c-1.6 1.8-3 3.6-3.1 6.1c-0.2 5.2-1.9 10.2-3.7 15 c-2.9 7.6-4.3 15.5-3.5 23.5c0.7 6.4 1.9 12.8 4.9 18.7c0.6 1.3 1.1 3.6-0.3 4.1c-2.2 0.8-1.9-1.8-2.3-3c-2.7-7-3.7-14.5-5.4-21.8 c-0.6-2.8-1.8-5.4-5.1-5c-4.5 0.5-8.8 2-11.4 6.2c-4.3 7-7.5 14.2-2 22.2c1 1.5 1.2 3.8 1.4 5.8c0.7 6.5 4.1 11.1 9.6 14.3 c5.8 3.4 10.1 8.2 13.5 13.8c3.5 5.9 6.1 12.2 8.7 18.5c1.9 4.4 2 8.6 0.8 13.1c-1.8 7-2 13.9 3.7 19.5c2.7 0 5.3 0 8 0 c5.9-4.3 8.1-13.7 3.9-19.8c-6.2-8.9-8.1-19.3-10.6-29.4c-1.4-5.8 2.7-9.6 6.8-12.9c1-0.8 2.4-1.1 3.5-2c6.4-5.2 6.5-5.3 12.6 0.3 c3.4 3.1 7.5 4.9 11.1 7.7c2.9 2.3 6.6 3.6 7.5 8.1c0.5 2.2 3.3 3.1 5.4 4.1c7.9 3.9 13.3 10.4 19.1 16.8c4.5 5 10.6 9.3 18 9.7 c6.9 0.4 11-4.2 9.1-11.4c-2-7.5-0.3-14.1 2.4-20.9c0.8-2-0.2-3.7-1.5-4.3c-6.1-2.6-6.6-8.8-8.8-13.8c-1.2-2.7-4.7-6.6-1.4-8.9 c2.5-1.8 5.3 2.5 7.6 4.2c4.2 3.2 6.9 8.1 12 10.3c3.7 1.6 6.7 2 8.9-2.1c0.6-1.1 1.5-2.5 3.1-1.9c1.6 0.7 0.9 2.2 0.8 3.5 c-0.7 5.3 5.9 17 10.8 19c4.5 1.8 8-0.2 8.7-5.1c0.2-1.6 0-3.3 0-5c0-1.6-0.7-3.5 1.3-4.4c0.8-0.4 1.7-0.1 2.2 0.6 c1 1.4 1.7 2.7 1.2 4.6c-1.5 5.6 0.3 9 5.6 11.1c2.9 1.1 5.7 0.6 8.2-0.8c8.1-4.6 16.1-9.4 24.1-14.1c0.7-0.4 1.6-1.6 1.5-1.8 c-2.9-4.1 3-8.7-1.5-12.5c2.5-0.9 3.5 0.1 4.1 1.3c1.9 4.1 4.4 4 7.4 1.3c4.9-4.3 10.7-2.7 16.3-2.7c7.6 0 10.4-1.8 13.3-8.8 c1.1-2.6 1.1-5.1 0.4-7.8c-1.4-5.1-3.1-10.2-3-15.8c6.8 7.8 15.2 7.3 23.8 5.1c3-0.7 5.6-0.3 8.3 0.6c11 3.8 21.9 3.2 32.6-1.1 c2.9-1.1 4.2-0.5 5.3 2.3c1.3 3.5 0.7 6.9-0.1 10.3c-0.5 2-0.2 2.8 2.2 3.2c9.4 1.6 15.5-1 20.6-9.3c1.6-2.5 4-4 6.3-5.5 c7.3-4.9 14.9-9.5 21.6-15.3c2.8-2.4 6.5-3.3 10-4.2c7.4-2 12.8-6.4 17.4-12.6c11.2-15.3 23.9-29.3 37.6-42.6 c7.2-7.1 15.4-9 24-11.8c1.8-0.6 3.7-1.8 4.9-3.3c9.9-11.3 22.8-18.8 34.5-27.9c4-3.1 5.8-5.4 2.7-10.4c-3.1-5.1-3.2-11.5-5.7-17 c-2.1-4.7-3.6-9.6-7-13.7c-2.4-2.9-2.4-5.7 0.7-8.7c2.4-2.3 4.9-4.5 7.5-6.6c3.4-2.8 6.5-6 7.2-10.5c0.7-4 2.9-6.6 6.3-8.5 c4.4-2.4 8.4-5.3 11.7-9.2c4.4-5.3 4.2-7.7-2-10.4c-3.9-1.7-7.1-4.2-10.4-6.7c-2.6-1.9-4.2-4.4-4.5-7.5c-0.5-5.8-3.5-10.3-7-14.6 c-2.6-3.3-3.9-7.3-5.9-10.8c-3.5-6.1-7.9-11.8-12.4-17.2c-2.7-3.3-7.7-3.2-12.4-3.5c-8.1-0.6-17.1 0.1-23.5-7.7 c-3.9-4.7-10.1-7.3-14.4-12.1c-2.1-2.4-6.1-1.3-9.1-1.3c-5.3-0.1-8.9-1.5-11.5-6.7c-3.4-6.8-8.7-11.8-17.5-9.9c-1 0.2-2.1 0.3-3 0 c-10.2-3.1-16.5 1.8-21.2 10.1c-1.1 1.9-2.6 3.5-3.8 5.2c-7.9 11.2-15.3 14.1-28.9 11.1c-3.2-0.7-6.5-1.7-9.5-2.9 c-5.3-2.2-10.5-2.9-16.1-1.3c-4.5 1.3-8.9 0.7-13.2-1.1c-0.5-0.2-1-0.5-1.5-0.7l-0.2 0.1l-0.2-0.2c-0.5-0.3-1-0.6-1.5-0.9l-0.3 0.1 l-0.2-0.2c-0.5-0.3-1-0.6-1.5-0.9c-0.8-0.4-1.7-0.7-2.5-1.1c-0.3-0.1-0.6-0.2-1-0.3c-0.8-0.2-1.6-0.5-2.3-0.7l0 0 c0 0-0.3-0.1-0.3-0.1s-0.3-0.2-0.3-0.2c-0.5-0.2-1-0.4-1.5-0.6c0 0-0.3 0.1-0.3 0.1l-0.3-0.2c-4.8-0.6-9.6-0.9-14.4-1.3 c-2.4-0.2-4.8-0.3-7.2-0.5c2.4 0.2 4.8 0.4 7.2 0.5c4.8 0.3 9.6 0.7 14.4 1.3c-0.3-0.7-0.7-1.3-1-2c0.2 0 0.3 0 0.5-0.1 c15.8-7.4 34.6-10 43.5-28.5c4.7-9.9 13.6-15.2 24.3-17.4c2.8-0.6 5.6-0.5 8.3 0.7c7 3.1 13.7 1.9 19.9-2.1 c8.1-5.2 16.1-10.6 24.1-16c2.6-1.8 4.7-4.1 6.8-6.6c1.6-2 1.9-4.2 1.4-6.6c-2-8.9-9.7-15.7-18.9-16.7c-5.3-0.5-10.8-0.2-13.9-5.9 c-0.2-0.4-0.8-0.7-1.2-0.7c-7.6 0.5-3.4-3.7-2.6-6.5c0.5-1.7 1.4-3.4 1.7-5.2c0.9-4.9-0.9-7.7-5.9-8.5c-6.2-1-12.2-0.6-18.5 1.3 c-9.6 3-17.7 8-25.7 13.5c-7.5 5.2-16.1 8-24.3 11.6c-4 1.8-6.9-0.6-9.4-3.3c9.9 1.2 16.6-4.3 23-10.8c6-6.1 12.8-11.5 19.9-16.2 c0 0 0 0 0 0c1.7-0.4 4.2 1 5-1.9c0 0 0 0 0 0c1.9 0.3 3.9 0.5 5.8 0.5c2.8 0 5.5-0.3 8.1-0.9c4 3.6 8.4 2.8 12.2 0.3 c4.7-3.1 8.8-4.1 13.9-0.6c4.1 2.8 6.5 1.4 6.9-3.5c0.2-2.3 1.2-3.5 2.8-4.9c8.1-7.1 17.6-12.5 24.8-20.8c4.3-5 5.2-10.7 6.1-16.5 c0.8-4.9 2.3-9.4 5.5-13.1c4.6-5.4 6.5-11.5 5.7-18.5c-0.3-3 0.6-5.6 3.2-6.8c14-6.4 21.2-19.2 29.3-31.1c2.8-4.1 5.9-7.9 7.1-13 c0.8-3.5 1.3-6.7-0.7-10c-1.8-2.9-0.4-5.9 0.9-8.6c5.3-11.5 10.7-22.9 16.2-34.3c1-2.2 1.3-4.4 1.3-6.8c0.2-26.9 7.8-51.5 26-71.4 c7-7.7 10.2-17.7 18-24.5c1.2-1.1 1.8-2.9 3.9-2.7c0-2.7 0-5.3 0-8C893.8 360.2 895.7 348.7 894 337.9z M309.2 419.1 c0-1.9-1.5-4.1-2.6-5.1C307.7 415 309.2 417.2 309.2 419.1C309.2 419.1 309.2 419.1 309.2 419.1z M306.1 413.5 c0.1 0.1 0.3 0.3 0.5 0.4C306.4 413.7 306.3 413.6 306.1 413.5z M305.5 425.2c-0.7 1.1-0.4 2.4-0.3 3.7c0 0 0 0 0 0 C305.1 427.7 304.7 426.4 305.5 425.2z M310.9 430.8c-0.5-0.4-1-0.8-1.5-1C309.9 430 310.4 430.4 310.9 430.8z M311.8 431.8 c-0.2-0.3-0.5-0.7-0.8-0.9C311.2 431.2 311.5 431.5 311.8 431.8z M266.1 410c0-0.1-0.1-0.3-0.1-0.4C266 409.7 266 409.9 266.1 410 L266.1 410z M265.3 407.6c-0.1-0.3-0.1-0.6-0.2-0.8C265.1 407.1 265.2 407.3 265.3 407.6z M265.8 409.3c-0.1-0.2-0.1-0.3-0.2-0.5 C265.7 409 265.8 409.1 265.8 409.3z M265.4 408.2C265.4 408.1 265.4 408.1 265.4 408.2C265.4 408.1 265.4 408.1 265.4 408.2z M299.3 757.6c0.4-0.6 0.8-1.2 1.2-1.8C300.1 756.4 299.7 757 299.3 757.6z M292 775.7c-0.1 0.1-0.2 0.2-0.3 0.3 C291.8 775.9 291.9 775.8 292 775.7z M293 772.5c0 0.1 0 0.1 0 0.2C292.9 772.6 292.9 772.5 293 772.5z M292.9 773.2 c0 0.1 0 0.1 0 0.2C292.8 773.3 292.9 773.2 292.9 773.2z M292.7 773.8c0 0.1 0 0.1-0.1 0.2C292.7 774 292.7 773.9 292.7 773.8z M292.6 774.5c0 0.1-0.1 0.2-0.1 0.3C292.5 774.7 292.5 774.6 292.6 774.5z M292.3 775.1c-0.1 0.1-0.1 0.2-0.2 0.3 C292.2 775.3 292.3 775.2 292.3 775.1z M293 771.9c0 0 0-0.1 0-0.1c0 0 0 0 0 0v0c0 0 0 0 0 0c0 0 0 0 0 0 C293 771.8 293 771.8 293 771.9z M304.8 634.9c-1.9 3.5-4 7-6.9 9.9c0 0 0 0 0 0C300.9 641.9 302.9 638.5 304.8 634.9z M254.5 604.5c-0.5 0-1 0-1.5 0C253.5 604.5 254 604.5 254.5 604.5z M242.1 599.8C242.1 599.8 242.1 599.7 242.1 599.8 C242.1 599.7 242.1 599.8 242.1 599.8z M231.3 598c0.3-0.1 0.6-0.1 0.9-0.2C231.9 597.8 231.6 597.9 231.3 598z M242.5 600.1 c0.9 0.8 1.5 2.1 1.6 3.9c0 0 0 0 0 0C244.1 602.2 243.4 600.9 242.5 600.1z M248.6 608.7c-0.1 0.2-0.1 0.3 0 0.4 C248.5 609.1 248.5 608.9 248.6 608.7z M298.9 682.6c0-0.1 0.1-0.3 0.1-0.5c0.1-0.9 0.4-1.7 0.8-2.5c0.3-0.5 0.6-1 1-1.4 c-0.3 0.5-0.7 0.9-1 1.4c-0.4 0.7-0.8 1.5-0.8 2.5C298.9 682.3 298.9 682.4 298.9 682.6z M389 730.8L389 730.8 c0.4-0.1 0.8-0.1 1.3-0.2C389.9 730.6 389.5 730.7 389 730.8z M418.6 788.4c0.1 0.1 0.2 0.2 0.3 0.3c0 0 0 0 0 0 C418.8 788.6 418.7 788.5 418.6 788.4z M419.1 788.9C419.1 788.9 419.1 788.9 419.1 788.9C419.1 788.9 419.1 788.9 419.1 788.9 C419.1 788.9 419.1 788.9 419.1 788.9L419.1 788.9c0.1 0.1 0.2 0.2 0.4 0.4C419.3 789.2 419.2 789 419.1 788.9z M690.7 662.5 C690.7 662.5 690.7 662.5 690.7 662.5C690.7 662.5 690.7 662.5 690.7 662.5z M688 663.4c-0.1 0-0.1 0-0.2 0.1 C687.9 663.4 687.9 663.4 688 663.4z M685.3 664.3c-0.2 0.1-0.3 0.1-0.5 0.2C685 664.4 685.2 664.3 685.3 664.3z M682.7 665.3 c-0.2 0.1-0.5 0.2-0.7 0.3C682.2 665.5 682.4 665.4 682.7 665.3z M680.1 666.4c-0.3 0.1-0.6 0.3-0.9 0.4 C679.4 666.7 679.7 666.5 680.1 666.4z M677.5 667.6c-0.4 0.2-0.8 0.4-1.3 0.7C676.7 668.1 677.1 667.8 677.5 667.6z M655.9 693.7 C655.9 693.7 655.9 693.7 655.9 693.7L655.9 693.7C655.9 693.7 655.9 693.7 655.9 693.7z M675 669c-0.8 0.5-1.7 1-2.5 1.5 C673.3 669.9 674.1 669.4 675 669z M699.1 663.9c-0.1 0-0.2-0.1-0.3-0.1C698.9 663.8 699.1 663.9 699.1 663.9 C699.2 663.9 699.1 663.9 699.1 663.9z"/>
</g>
</svg>
