<svg xmlns="http://www.w3.org/2000/svg" xmlns:xlink="http://www.w3.org/1999/xlink" version="1.1" id="Layer_1" x="0px" y="0px" viewBox="0 0 74.7 100.1" enable-background="new 0 0 74.7 100.1" xml:space="preserve"><style>.style0{fill:	#108C1F;}</style><path d="M0.1 69.8c0.5-3.5 2.3-7.3 3.6-11.2c1.9-5.8 3.4-11.4 2.5-17.9c-1-7.3 3.6-13.6 7.7-19.5 c6.4 1.3 7.5-5.6 11.8-7.6c1.5-0.7 3.1-1.9 4.6-0.6c1.3 1.1 0.5 2.9 0 4.2c-0.9 2.3-2.1 4.5-3.2 6.7c-0.8 1.5-1.4 3-1.3 4.7 c0.1 1 0.3 2.2 1.4 2.5c1.2 0.3 1.8-0.8 2.1-1.7c3.3-11.8 13.1-18.1 21.4-25.6c1-0.9 2.1-1.7 3.3-2.2c6.3-2.7 6.8-2.1 7 4.4 c0.4 13.2 2.2 26.1 7.7 38.4c3.9 8.6 5.9 17.6 6.1 27.1c0 2.8-0.8 4.8-3.2 6.2c-2.8 1.8-5.6 3.6-8.3 5.6c-2.7 2.1-5.7 3-8.9 1.9 c-3.2-1-4.6 0.2-5.4 3.1c-1.4 5.1-4.6 8.8-9.6 10.8c-2.9 1.2-6.2 2.1-8.1-1c-2-3.2-3.5-7-0.9-10.7c1.9-2.7 4.1-5.2 6.9-7.2 c2.4-1.7 2.9-3.4 1.8-6.3c-1.7-4.2-4-7.8-8-9.8c-3.8-1.8-3.9-4.2-1.8-7.2c2.4-3.4 5.1-6.6 7.7-9.8c1.6-1.9 1.6-2.9-1-3.9 c-6.1-2.2-6.8-1.9-10.2 3.6c-2.8 4.6-4.1 9.9-5.3 15c-1 4.6-3.3 7.4-7.6 9c-2.7 0.9-5.2 2.1-7.9 3.1C0.7 75.5-0.3 74.8 0.1 69.8z" class="style0"/></svg>